<?xml version="1.0" standalone="no"?>
<!DOCTYPE svg PUBLIC "-//W3C//DTD SVG 20010904//EN"
 "http://www.w3.org/TR/2001/REC-SVG-20010904/DTD/svg10.dtd">
<svg version="1.0" xmlns="http://www.w3.org/2000/svg"
 width="200.000000pt" height="74.000000pt" viewBox="0 0 200.000000 74.000000"
 preserveAspectRatio="xMidYMid meet">

<g transform="translate(0.000000,74.000000) scale(0.100000,-0.100000)"
fill="#f7f7f7" stroke="none">
<path d="M0 370 l0 -250 50 0 c50 0 52 1 145 92 87 83 97 90 113 76 9 -8 59
-49 109 -92 l92 -77 68 3 68 3 -144 120 -144 120 134 128 133 127 -64 0 -65 0
-200 -189 -200 -190 -3 190 -2 189 -45 0 -45 0 0 -250z"/>
<path d="M795 608 c-49 -18 -84 -47 -108 -91 -18 -36 -22 -58 -22 -147 0 -94
3 -110 25 -150 17 -29 41 -53 70 -70 44 -24 51 -25 273 -28 l227 -3 0 45 0 46
-205 0 c-155 0 -214 4 -240 14 -31 13 -55 41 -55 65 0 6 80 11 213 13 237 3
261 10 292 74 20 42 19 137 -1 175 -29 57 -76 69 -269 68 -93 0 -183 -5 -200
-11z m380 -94 c11 -11 15 -30 13 -57 -5 -63 -20 -67 -247 -67 l-193 0 7 38 c8
46 30 80 58 92 12 5 95 9 184 9 136 1 164 -2 178 -15z"/>
<path d="M1410 576 l0 -45 214 -3 c200 -3 217 -4 243 -24 15 -12 29 -30 31
-40 3 -18 -7 -19 -200 -20 -164 0 -210 -3 -240 -17 -53 -22 -78 -68 -78 -140
0 -79 21 -121 74 -147 39 -18 61 -20 294 -20 l252 0 0 158 c0 179 -13 242 -57
285 -52 49 -96 57 -324 57 l-209 0 0 -44z m500 -296 l0 -70 -198 0 c-226 0
-242 4 -242 67 0 71 8 73 237 73 l203 0 0 -70z"/>
</g>
</svg>
