<svg id="purple_logo" xmlns="http://www.w3.org/2000/svg" viewBox="0 0 116.654 116.654">
  <g id="_Group_" data-name="&lt;Group&gt;" transform="translate(18.982 25.396)">
    <path id="_Path_" data-name="&lt;Path&gt;"
      d="M66.437,63.345a40.5,40.5,0,0,0,3.172-12.351c-2.794,6.641-5.858,13.026-12.783,16.32l-.216-.189c1.552-1.552,3.159-3.051,4.643-4.657a29.144,29.144,0,0,0,6.884-11.433,12.5,12.5,0,0,0,.391-6.115c-.594,1.863-1.093,3.537-1.674,5.183a31.762,31.762,0,0,1-5.764,10.488,12.581,12.581,0,0,1-6.344,4.252c6.938-5.291,11.325-12,11.528-21-2.484,7.343-5.4,14.389-12.54,18.547C59.863,56.042,64.8,49.2,63.751,39.682,63.225,48.388,58.81,54.841,52.1,59.93A44.545,44.545,0,0,0,60.039,48a17.629,17.629,0,0,0,1.579-8.882,7.964,7.964,0,0,0-1.471-3.861,4.859,4.859,0,0,0-5.291-1.89,12.5,12.5,0,0,0-4.185,1.728,5.492,5.492,0,0,1-.891.445c2.605-2.578,5.4-4.913,9.044-5.858a9.881,9.881,0,0,1,11.217,5.4A23.514,23.514,0,0,1,71.58,47.821a44.734,44.734,0,0,1-5.143,15.523Z"
      transform="translate(-1.566 -15.106)" fill="#8c489f" />
    <path id="_Path_2" data-name="&lt;Path&gt;"
      d="M29.289,49.26a21.314,21.314,0,0,1-5.291-9A9.908,9.908,0,0,1,30.585,28.77a25.148,25.148,0,0,1,14.16-.122,48.325,48.325,0,0,1,12.986,5.4.607.607,0,0,1,.243.3A37.108,37.108,0,0,0,46.243,30.5a48.5,48.5,0,0,1,8.882,5.453,16.819,16.819,0,0,1,6.047,8.356,66.146,66.146,0,0,0-5.534-5.966,26.3,26.3,0,0,0-11.312-6.979,11.42,11.42,0,0,0-4.549-.31c1.957.783,3.726,1.417,5.4,2.173a30.857,30.857,0,0,1,10.016,6.547A15,15,0,0,1,58.243,44.2a3.55,3.55,0,0,1,.391,1.66C53.667,38.475,47.066,33.8,38,33.143a48.338,48.338,0,0,1,10.38,5.1,20.491,20.491,0,0,1,7.667,8.45c-1.512-1.35-2.794-2.9-4.306-4.239A26.241,26.241,0,0,0,37.7,35.451a16.2,16.2,0,0,0-3.024,0,.553.553,0,0,0-.594.256,22.948,22.948,0,0,1,11.3,4.05,29.7,29.7,0,0,1,8.4,8.6,62.531,62.531,0,0,0-5.669-5.021c-3.874-2.943-8-5.4-12.986-5.777a9.03,9.03,0,0,0-4.724.8,4.94,4.94,0,0,0-3.01,5.467A16.535,16.535,0,0,0,29.289,49.26Z"
      transform="translate(-10.664 -15.708)" fill="#8c489f" />
    <path id="_Path_3" data-name="&lt;Path&gt;"
      d="M47.859,64.948c-7.06-4.94-10.245-13.8-10.367-20.842.148.513.3,1.012.432,1.525l.472,1.647A36.271,36.271,0,0,0,43.8,58.4a15,15,0,0,0,6.466,5.4A5.98,5.98,0,0,0,56,63.625a6.128,6.128,0,0,0,2.43-3.739,17.642,17.642,0,0,0,.513-4.171c1.282,4.589,1.08,10.245-1.525,13.391a9.746,9.746,0,0,1-9.786,3.483c-5.129-.972-9.233-3.861-12.878-7.465a47.838,47.838,0,0,1-7.411-9.678.837.837,0,0,1-.121-.459,39.781,39.781,0,0,0,7.8,8.45c-3.874-5.939-7.438-11.973-6.2-19.492.459,2.106.864,4.239,1.417,6.331,1.5,5.575,3.591,10.8,8.342,14.511a7.991,7.991,0,0,0,1.984,1.12c.148-.337-.135-.432-.256-.567a41.913,41.913,0,0,1-7.357-11.2,16.86,16.86,0,0,1-1.525-9.058,4.7,4.7,0,0,1,.54-1.768,29.278,29.278,0,0,0,2.956,12.338,23.109,23.109,0,0,0,8.194,9.246C38.262,58.712,33.9,52.34,34.469,43.958a39.848,39.848,0,0,0,4.225,12.149,19.64,19.64,0,0,0,9.166,8.842Z"
      transform="translate(-9.459 -10.244)" fill="#8c489f" />
    <path id="_Path_4" data-name="&lt;Path&gt;"
      d="M48.933,80.865a7.154,7.154,0,0,1-8.977-4.981,7.3,7.3,0,1,1,8.977,4.981Z" transform="translate(-5.106 -2.12)"
      fill="#443266" />
    <path id="_Path_5" data-name="&lt;Path&gt;"
      d="M16.192,22.077a7.307,7.307,0,1,1,.02,10.333,7.307,7.307,0,0,1-.02-10.333Z"
      transform="translate(-14.062 -18.424)" fill="#443266" />
    <path id="_Path_6" data-name="&lt;Path&gt;"
      d="M74.783,20.955A7.262,7.262,0,1,1,64.551,31.214,7.264,7.264,0,1,1,74.824,20.941Z"
      transform="translate(2.857 -18.814)" fill="#443266" />
  </g>
  <path id="_Compound_Path_" data-name="&lt;Compound Path&gt;"
    d="M58.327,3.321A55.006,55.006,0,1,1,3.321,58.327,55.006,55.006,0,0,1,58.327,3.321m0-3.321a58.327,58.327,0,1,0,58.327,58.327A58.327,58.327,0,0,0,58.327,0Z"
    transform="translate(0 0)" fill="#443266" />
</svg>