<svg xmlns="http://www.w3.org/2000/svg" xmlns:xlink="http://www.w3.org/1999/xlink" width="34" height="38" viewBox="0 0 34 38">
  <defs>
    <clipPath id="clip-path">
      <rect id="Rectangle_31" data-name="Rectangle 31" width="34" height="38" transform="translate(-0.352 -0.379)" fill="none"/>
    </clipPath>
  </defs>
  <g id="Group_12" data-name="Group 12" transform="translate(0.352 0.379)">
    <g id="Group_11" data-name="Group 11" transform="translate(0 0)" clip-path="url(#clip-path)">
      <path id="Path_17" data-name="Path 17" d="M264.229,402.147a7.125,7.125,0,0,1-1.787,4.731v14.478a1.338,1.338,0,0,1-1.34,1.34H244.127a1.338,1.338,0,0,1-1.34-1.34V406.878A7.15,7.15,0,0,1,248.147,395a7.314,7.314,0,0,1,4.467,1.787A7.314,7.314,0,0,1,257.082,395,7.145,7.145,0,0,1,264.229,402.147Z" transform="translate(-239.279 -386.911)" fill="#453266" stroke="#fff" stroke-linecap="round" stroke-linejoin="round" stroke-width="2"/>
      <path id="Path_18" data-name="Path 18" d="M280.229,386.147a7.124,7.124,0,0,1-1.787,4.731v14.478a1.338,1.338,0,0,1-1.34,1.34h-5.807v-8.671a7.15,7.15,0,0,0-5.361-11.878,7.314,7.314,0,0,0-4.467,1.787A7.314,7.314,0,0,0,257,386.147,7.145,7.145,0,0,1,264.147,379a7.315,7.315,0,0,1,4.467,1.787A7.314,7.314,0,0,1,273.082,379,7.145,7.145,0,0,1,280.229,386.147Z" transform="translate(-248.131 -378.058)" fill="#453266" stroke="#fff" stroke-linecap="round" stroke-linejoin="round" stroke-width="2"/>
      <line id="Line_2" data-name="Line 2" y1="7" x2="7" transform="translate(9.648 16.621)" fill="none" stroke="#fff" stroke-linecap="round" stroke-linejoin="round" stroke-width="2"/>
      <line id="Line_3" data-name="Line 3" y1="6" x2="7" transform="translate(9.648 23.621)" fill="none" stroke="#fff" stroke-linecap="round" stroke-linejoin="round" stroke-width="2"/>
    </g>
  </g>
</svg>
