<svg xmlns="http://www.w3.org/2000/svg" width="32" height="30" viewBox="0 0 32 30">
  <g id="Polygon_2" data-name="Polygon 2" transform="translate(32 30) rotate(-180)" fill="#453266">
    <path d="M 28.66666984558105 29.5 L 3.33332896232605 29.5 C 2.801538944244385 29.5 2.320698976516724 29.22775840759277 2.047099113464355 28.77174949645996 C 1.773488998413086 28.31573867797852 1.759549021720886 27.76335906982422 2.009809017181396 27.29411888122559 L 14.67646884918213 3.544109344482422 C 14.94166946411133 3.046869277954102 15.43643951416016 2.749999284744263 15.99999904632568 2.749999284744263 C 16.56354904174805 2.749999284744263 17.05831909179688 3.046869277954102 17.32351875305176 3.544109344482422 L 29.99018859863281 27.29411888122559 C 30.24044990539551 27.76334953308105 30.22650909423828 28.31572914123535 29.95290946960449 28.7717399597168 C 29.6793098449707 29.22774887084961 29.1984691619873 29.5 28.66666984558105 29.5 Z" stroke="none"/>
    <path d="M 15.9999885559082 3.25 C 15.81958961486816 3.25 15.37247848510742 3.301589965820312 15.11763954162598 3.779409408569336 L 2.450979232788086 27.52940940856934 C 2.210498809814453 27.98030853271484 2.388248443603516 28.3685188293457 2.475839614868164 28.51449966430664 C 2.563419342041016 28.66046905517578 2.822309494018555 29 3.333328247070312 29 L 28.66665840148926 29 C 29.17767906188965 29 29.43656921386719 28.66047859191895 29.5241584777832 28.51449966430664 C 29.61174011230469 28.3685188293457 29.78949928283691 27.98030853271484 29.54901885986328 27.52940940856934 L 16.88234901428223 3.779409408569336 C 16.62751007080078 3.301589965820312 16.18038940429688 3.25 15.9999885559082 3.25 M 15.9999942779541 2.25 C 16.69411087036133 2.25 17.38822937011719 2.602939605712891 17.76469802856445 3.308818817138672 L 30.43136978149414 27.05881881713867 C 31.14187812805176 28.39103889465332 30.17650985717773 30 28.66665840148926 30 L 3.333328247070312 30 C 1.823488235473633 30 0.8581085205078125 28.39103889465332 1.568628311157227 27.05881881713867 L 14.23528861999512 3.308818817138672 C 14.61175918579102 2.602939605712891 15.30587577819824 2.25 15.9999942779541 2.25 Z" stroke="none" fill="#707070"/>
  </g>
</svg>
