<svg viewBox="0 0 187 36" xmlns="http://www.w3.org/2000/svg"><g fill="#f7f7f7" fill-rule="evenodd"><path d="M164.877 29.29a68.697 68.697 0 0 0-2.421 1.137l-.993.5-.176-1.095-.07-.434a689.566 689.566 0 0 0-.766-4.62l-.078-.455c-.342-1.999-.606-3.447-.757-4.121-.468-2.09-.917-4.028-1.29-5.574-.516-1.148-.949-2.147-1.031-2.46l-.288-1.09 1.069-.37.447-.153a1531.038 1531.038 0 0 1 4.785-1.636l.11-.038c.77-.262 1.479-.501 2.112-.714.793-.267 1.754-.656 2.84-1.144a64.44 64.44 0 0 0 1.292-.597 92.202 92.202 0 0 0 4.344-2.215l1.34-.736.42 1.467.142.487a187.535 187.535 0 0 0 1.61 5.21c.164.498.323.971.477 1.417.171.498.335.958.491 1.377.299.805.75 1.792 1.326 2.915.222.432.46.88.71 1.34a84.95 84.95 0 0 0 2.532 4.319l.82 1.294-1.45.503-.436.154a142.704 142.704 0 0 0-4.671 1.75c-.462.184-.9.363-1.312.536-.522.22-.997.428-1.42.622-.7.324-1.529.698-2.46 1.112l-.279.124a471.688 471.688 0 0 1-4.72 2.062l-.444.192-1.08.463-.504-1.06-.221-.468zm-.685-1.47c-.45.2-.893.404-1.325.607-.307.144-.151.061-.151.061l-.081-.497a605.548 605.548 0 0 0-.581-3.484l-.078-.457a267.61 267.61 0 0 0-.344-1.972 145.154 145.154 0 0 0 .656 1.518c.606 1.384 1.255 2.82 1.904 4.224zm5.293 7.572c-9.668 0-17.506-7.804-17.506-17.43S159.817.532 169.485.532c9.669 0 17.507 7.804 17.507 17.43s-7.838 17.43-17.507 17.43zm-8.987-22.943c1.221-.419 2.447-.838 3.597-1.228l.11-.038c.768-.26 1.474-.5 2.104-.712.88-.295 1.91-.712 3.063-1.23.434-.195.881-.402 1.34-.62 1.049-.5 3.13-1.565 3.13-1.565s-.03-.11.113.364c.408 1.354.83 2.709 1.246 3.976.166.508.33.993.487 1.45.178.515.348.993.51 1.431.337.908.827 1.976 1.442 3.178.232.451.479.917.74 1.396a87.335 87.335 0 0 0 1.793 3.12l-.181.119c-1.22.444-2.44.905-3.58 1.36-.476.19-.928.374-1.354.553-.547.23-1.047.449-1.496.656-.69.318-1.51.688-2.43 1.098l-.278.123a469.322 469.322 0 0 1-3.531 1.549c-.422.182-.513.243-.513.243l-.376-.81a233.192 233.192 0 0 1-2.298-5.131c-.326-.755-.625-1.465-.892-2.122a65.134 65.134 0 0 0-.64-1.51c-.283-.648-2.522-5.506-2.522-5.506s-.012.003.416-.144zM12.522 23.093c0 1.706-.603 3.014-1.807 3.924-1.204.912-2.928 1.367-5.173 1.367-2.256 0-4.067-.352-5.435-1.058V24.12c1.99.948 3.843 1.421 5.557 1.421 2.214 0 3.321-.69 3.321-2.069 0-.442-.122-.81-.367-1.105-.245-.296-.648-.601-1.209-.917-.561-.316-1.342-.673-2.342-1.075-1.95-.778-3.268-1.557-3.957-2.337C.42 17.26.077 16.248.077 15.006c0-1.496.584-2.656 1.753-3.483 1.168-.826 2.757-1.24 4.768-1.24 1.99 0 3.872.416 5.648 1.248l-1.164 2.796c-1.826-.78-3.362-1.17-4.607-1.17-1.898 0-2.847.56-2.847 1.675 0 .548.247 1.01.742 1.39.495.379 1.574.9 3.238 1.563 1.398.559 2.413 1.07 3.046 1.533.632.463 1.102.997 1.408 1.603.306.606.46 1.33.46 2.172M21.688 28.384c-2.562 0-4.508-.771-5.84-2.314-1.331-1.542-1.997-3.756-1.997-6.641 0-2.938.696-5.197 2.089-6.776 1.393-1.58 3.405-2.37 6.039-2.37 1.785 0 3.393.342 4.822 1.026l-1.087 2.986c-1.521-.61-2.776-.916-3.766-.916-2.93 0-4.393 2.006-4.393 6.018 0 1.958.364 3.43 1.094 4.414.73.985 1.799 1.477 3.207 1.477 1.602 0 3.117-.41 4.546-1.231v3.237a6.97 6.97 0 0 1-2.059.837c-.73.168-1.615.253-2.655.253M37.211 10.283c.725 0 1.322.053 1.79.158l-.351 3.46a6.593 6.593 0 0 0-1.592-.19c-1.439 0-2.605.485-3.498 1.452-.893.97-1.339 2.227-1.339 3.776v9.13h-3.597v-17.47h2.816l.475 3.08h.183c.561-1.042 1.294-1.869 2.197-2.48.903-.61 1.875-.916 2.916-.916M52.574 28.068l-.504-2.29h-.184c-.5.811-1.212 1.448-2.135 1.91-.924.464-1.977.696-3.161.696-2.051 0-3.582-.527-4.593-1.58-1.01-1.053-1.515-2.647-1.515-4.785v-11.42h3.628v10.772c0 1.337.266 2.34.796 3.01.53.667 1.362 1.002 2.495 1.002 1.51 0 2.62-.466 3.33-1.398.708-.932 1.063-2.493 1.063-4.683V10.6h3.612v17.47h-2.832M73.04 28.068h-3.614V17.296c0-1.337-.245-2.335-.734-2.993-.49-.658-1.256-.987-2.296-.987-1.389 0-2.406.465-3.055 1.398-.647.932-.971 2.482-.971 4.651v8.703h-3.597V10.6h2.816l.505 2.29h.184c.47-.831 1.15-1.474 2.044-1.927.892-.452 1.874-.679 2.947-.679 2.601 0 4.326.916 5.173 2.748h.245A5.23 5.23 0 0 1 74.8 11.01c.908-.484 1.948-.726 3.122-.726 2.02 0 3.493.527 4.416 1.58.924 1.052 1.385 2.658 1.385 4.816v11.39h-3.596V17.295c0-1.337-.248-2.335-.743-2.993-.495-.658-1.263-.987-2.304-.987-1.398 0-2.421.45-3.068 1.35-.649.9-.973 2.282-.973 4.146v9.256M100.819 28.068l-2.19-8.15c-.265-.863-.744-2.869-1.438-6.018h-.138c-.591 2.844-1.061 4.86-1.408 6.05l-2.25 8.118h-3.98L84.669 10.6h3.674l2.159 8.608c.49 2.127.836 3.95 1.04 5.465h.093c.101-.768.257-1.65.466-2.645.21-.996.391-1.74.543-2.235l2.573-9.193h3.949l2.495 9.193c.153.516.344 1.306.574 2.37.23 1.062.364 1.89.405 2.479h.122c.154-1.295.51-3.106 1.073-5.434l2.188-8.608h3.613l-4.776 17.47h-4.041M111.074 28.068h3.597V10.6h-3.597v17.47zm-.215-22.097c0-.663.176-1.174.529-1.531.352-.359.854-.538 1.507-.538.633 0 1.125.18 1.477.538.353.357.528.868.528 1.531 0 .632-.175 1.13-.528 1.492-.352.364-.844.546-1.477.546-.653 0-1.155-.182-1.507-.546-.353-.362-.53-.86-.53-1.492zM129.639 23.093c0 1.706-.603 3.014-1.807 3.924-1.204.912-2.928 1.367-5.173 1.367-2.256 0-4.067-.352-5.435-1.058V24.12c1.99.948 3.843 1.421 5.557 1.421 2.214 0 3.321-.69 3.321-2.069 0-.442-.122-.81-.367-1.105-.245-.296-.648-.601-1.21-.917-.56-.316-1.341-.673-2.34-1.075-1.95-.778-3.27-1.557-3.958-2.337-.688-.779-1.034-1.79-1.034-3.032 0-1.496.585-2.656 1.754-3.483 1.168-.826 2.758-1.24 4.768-1.24 1.99 0 3.872.416 5.648 1.248l-1.164 2.796c-1.826-.78-3.362-1.17-4.607-1.17-1.898 0-2.848.56-2.848 1.675 0 .548.249 1.01.743 1.39.495.379 1.575.9 3.238 1.563 1.399.559 2.413 1.07 3.046 1.533.632.463 1.102.997 1.408 1.603.306.606.46 1.33.46 2.172M138.695 13.095c-1.143 0-2.059.373-2.747 1.12-.69.749-1.1 1.839-1.233 3.27h7.684c-.02-1.442-.357-2.535-1.01-3.277s-1.552-1.113-2.694-1.113zm.659 15.29c-2.634 0-4.692-.794-6.177-2.378-1.486-1.585-2.227-3.768-2.227-6.547 0-2.853.689-5.097 2.065-6.729 1.379-1.632 3.271-2.448 5.68-2.448 2.234 0 4 .7 5.296 2.1 1.296 1.401 1.944 3.329 1.944 5.782v2.006h-11.281c.051 1.695.495 2.998 1.332 3.91.836.91 2.014 1.365 3.536 1.365 1 0 1.93-.098 2.793-.292.862-.195 1.789-.52 2.778-.972V27.2c-.877.431-1.766.737-2.663.915-.898.18-1.923.27-3.076.27z"/></g></svg>