<svg id="Layer_1" data-name="Layer 1" xmlns="http://www.w3.org/2000/svg" viewBox="0 0 26 44"><g id="Group_9" data-name="Group 9"><g id="Rectangle_14" data-name="Rectangle 14"><path d="M297.48,399.21h0a13,13,0,0,1,13,13v18a13,13,0,0,1-13,13h0a13,13,0,0,1-13-13v-18A13,13,0,0,1,297.48,399.21Z" transform="translate(-284.48 -399.21)" style="fill:none"/><path d="M297.48,400.71h0a11.5,11.5,0,0,1,11.5,11.5v18a11.5,11.5,0,0,1-11.5,11.5h0a11.5,11.5,0,0,1-11.5-11.5v-18A11.5,11.5,0,0,1,297.48,400.71Z" transform="translate(-284.48 -399.21)" style="fill:none;stroke:#453266;stroke-width:3px"/></g><circle id="Ellipse_4" data-name="Ellipse 4" cx="13" cy="29" r="4" style="fill:#8b489c"/><circle id="Ellipse_5" data-name="Ellipse 5" cx="13" cy="15" r="4" style="fill:#8b489c;opacity:0.4410000145435333;isolation:isolate"/></g></svg>