<svg xmlns="http://www.w3.org/2000/svg" viewBox="0 0 389.39 300.86"><g id="Layer_3" data-name="Layer 3"><rect id="Rectangle_24-2" data-name="Rectangle 24-2" y="44.78" width="389.39" height="255.89" rx="14.83" style="fill:#453266"/><path d="M331.81,562.22s8.76-33.41,4.73-56.15-12.32-27.49-12.32-27.49-7.1-9,2.85-19.43c0,0-21.56-6.16-33.65,5.93,0,0-9-5.69,0-14.46,0,0-51.89-4-71.79,33.18s-8.53,77.71-8.53,77.71l8.29,10.66,106.15.72Z" transform="translate(-84.43 -450.5)" style="fill:#843c1c"/><path d="M219,587.92s.41,27.42,25.78,40.1,28.24,16,57.3-1.63,21.69-40.93,21.69-40.93l-2.05-15.14,6-26.34L319,508s-1.75-11-18-11.79-71.63-3.24-71.63-3.24-9.15,0-9.35,13c0,0,.4,61.43,2.85,64.68Z" transform="translate(-84.43 -450.5)" style="fill:#f5be91"/><path d="M320.83,574l7.1-11.19s6.55-7.92,10.38,5.19-9.29,22.66-14.75,22.39Z" transform="translate(-84.43 -450.5)" style="fill:#f5be91"/><path d="M225.15,574l-7.1-11.19s-6.55-7.92-10.37,5.19,9.28,22.66,14.74,22.39Z" transform="translate(-84.43 -450.5)" style="fill:#f5be91"/><polygon points="152.03 213.22 104.07 226.56 117.66 300.86 255.19 300.86 268.6 225.56 224.27 213.03 152.03 213.22" style="fill:#e2b73b"/><path d="M246,661.24l-11,2.87s.23,35.38,38.49,35.38,37.37-35.19,37.37-35.19l-11.55-3.06Z" transform="translate(-84.43 -450.5)" style="fill:#6c3916"/><path d="M254.62,629.2v30.13L244,661.69s-2.31,27.76,28.77,27.76,28.33-27.84,28.33-27.84l-10.4-2.76-.24-29.65Z" transform="translate(-84.43 -450.5)" style="fill:#f5be91"/><path d="M202.4,749.88s9.44-59.88-9.73-73.74c0,0-25.37,2.36-30.09,27.43s-7.37,47.78-7.37,47.78h46.88Z" transform="translate(-84.43 -450.5)" style="fill:#b4842c"/><path d="M339.3,749.88s-5.44-60,13.73-73.82c0,0,29.79,2.44,34.51,27.51s7.37,47.78,7.37,47.78h-55.3Z" transform="translate(-84.43 -450.5)" style="fill:#b4842c"/><path d="M254.43,632.86s19,3.81,36.34-.17v8.6s-36.15.73-36.15,14.36S254.43,631.73,254.43,632.86Z" transform="translate(-84.43 -450.5)" style="fill:#e7a474"/><ellipse cx="163.52" cy="106.23" rx="5.38" ry="8.07" style="fill:#603415"/><ellipse cx="211.95" cy="106.23" rx="5.38" ry="8.07" style="fill:#603415"/><path d="M283.83,535.31l.62,6.47s24.28-.78,27.5.91c0,0,1.86.32,1.82-2.37s-.63-3.5-3.75-4.08S283.83,535.31,283.83,535.31Z" transform="translate(-84.43 -450.5)" style="fill:#603415"/><path d="M260,535.31l-.61,6.47s-24.29-.78-27.51.91c0,0-1.86.32-1.81-2.37s.62-3.5,3.74-4.08S260,535.31,260,535.31Z" transform="translate(-84.43 -450.5)" style="fill:#603415"/><path d="M257.07,598.9H285.9S273.4,614.9,257.07,598.9Z" transform="translate(-84.43 -450.5)" style="fill:#fff"/><path d="M222.39,570.33s-4.29-33.81-.27-42.4c0,0,2.15-25.23,23.35-25.23h53.94s20.36.4,20.36,22.41c0,0,4.89,10.5,1.94,47.26,0,0,11.15-33.22,8.82-45.25-5.63-29.12-31-55.75-71-52.8s-38.22,23.29-42.79,41S222.39,570.33,222.39,570.33Z" transform="translate(-84.43 -450.5)" style="fill:#803d23"/></g></svg>