<svg id="Layer_3" data-name="Layer 3" xmlns="http://www.w3.org/2000/svg" viewBox="0 0 389.39 290.83"><rect id="Rectangle_24-2" data-name="Rectangle 24-2" y="34.94" width="389.39" height="255.89" rx="14.83" style="fill:#453266"/><path d="M256.27,259.75s-38.23,11.15-51,56.82,4.78,80.18,4.78,80.18,9,43-10.09,65.31-13.4,55.38,15.4,56.82,31.33,14.87,31.33,14.87H392.2s41.42-69-9-101.42c0,0-27.08-19.65-25-36.64s11.68-26,11.68-26,16.46-30.8,0-71.15S297.69,220.46,256.27,259.75Z" transform="translate(-103.83 -243.17)" style="fill:#c09c4b"/><rect x="240.63" y="241.21" width="31.56" height="49.39" style="fill:#f5bf93"/><rect x="108.25" y="241.21" width="31.56" height="49.39" style="fill:#f5bf93"/><polygon points="123.34 217.79 165.77 202.72 210.75 202.72 258.75 218.72 239.04 277.12 235.56 290.83 143.51 290.83 123.34 217.79" style="fill:#1d8541"/><path d="M204.44,491.34s12.34-40.81,36.17-29.68,3.57,58.66,3.57,58.66S206.59,519.39,204.44,491.34Z" transform="translate(-103.83 -243.17)" style="fill:#223d1b"/><path d="M380,492s-10.43-41.5-33.62-30.37-3.47,58.66-3.47,58.66S374.4,511.48,380,492Z" transform="translate(-103.83 -243.17)" style="fill:#223d1b"/><path d="M275.23,443.28l-6.75.77s.77,20.06,23.14,20.06,24.29-20.06,24.29-20.06l-8.1-1.15Z" transform="translate(-103.83 -243.17)" style="fill:#223d1b"/><path d="M275.91,416.14v29.32s-.27,12.41,16.11,12.41,16.9-13.2,16.9-13.2V414.3H275.64Z" transform="translate(-103.83 -243.17)" style="fill:#f7bf92"/><path d="M352.7,363.43,361,342.76s13.12,6,6.76,21.46-19.87,9.94-19.87,9.94Z" transform="translate(-103.83 -243.17)" style="fill:#f7bf92"/><path d="M231.21,363.43l-8.35-20.67s-13.11,6-6.75,21.46S236,374.16,236,374.16Z" transform="translate(-103.83 -243.17)" style="fill:#f7bf92"/><path d="M228.31,350.82s7.36,68.52,63.46,68.52c60.41,0,63.6-66.4,63.6-66.4s5.37-89.55-59.46-89.95C221.41,262.53,228.31,350.82,228.31,350.82Z" transform="translate(-103.83 -243.17)" style="fill:#f7bf92"/><ellipse cx="164.21" cy="100.76" rx="5.48" ry="8.44" style="fill:#633213"/><ellipse cx="214.84" cy="100.48" rx="5.48" ry="8.44" style="fill:#633213"/><path d="M306.9,323.44h18.39s10.6-.5,14.74,5.47H307.24Z" transform="translate(-103.83 -243.17)" style="fill:#6d3e18"/><path d="M279.58,323.19H261.19s-10.6-.49-14.74,5.47h32.79Z" transform="translate(-103.83 -243.17)" style="fill:#6d3e18"/><path d="M280.57,382.55h30.14S296,401.33,280.57,382.55Z" transform="translate(-103.83 -243.17)" style="fill:#fff"/><path d="M229.55,359.67s-4.08-27.17,10.53-39.73,29.54-25.13,20.37-40.08c0,0,4.08,23.78,58.75,11.89,0,0,37.35,33.28,32.6,74,0,0,10.87-22.07,10.87-36.68S338.56,257.79,292,260.85,218.34,295.83,229.55,359.67Z" transform="translate(-103.83 -243.17)" style="fill:#c09c4b"/><path d="M275.87,417.55s17.3,3.46,33-.16v7.82S276,425.87,276,438.26,275.87,416.52,275.87,417.55Z" transform="translate(-103.83 -243.17)" style="fill:#e7a474"/></svg>