<svg id="Layer_9" data-name="Layer 9" xmlns="http://www.w3.org/2000/svg" viewBox="0 0 275.38 216.11"><g id="Group_166" data-name="Group 166"><rect id="Rectangle_155" data-name="Rectangle 155" x="149.83" y="13.82" width="2.59" height="79.22" style="fill:#a16628"/><rect id="Rectangle_156" data-name="Rectangle 156" x="135.68" y="18.76" width="30.7" height="17.8" style="fill:#d4995f"/><g id="Group_157" data-name="Group 157"><rect id="Rectangle_157" data-name="Rectangle 157" x="252.29" y="12.75" width="3.37" height="97.08" style="fill:#4a7b5d"/><path id="Path_167" data-name="Path 167" d="M264.79,281s-2.56-16.09,15.29-15.8C280.08,265.18,282.48,281.73,264.79,281Z" transform="translate(-12.48 -265.18)" style="fill:#479456"/><path id="Path_168" data-name="Path 168" d="M268,311.11s2.55-16.09-15.29-15.8C252.66,295.31,250.26,311.86,268,311.11Z" transform="translate(-12.48 -265.18)" style="fill:#479456"/><path id="Path_169" data-name="Path 169" d="M264.8,327.32s-2.56-16.08,15.28-15.79C280.08,311.53,282.49,328.08,264.8,327.32Z" transform="translate(-12.48 -265.18)" style="fill:#479456"/><path id="Path_170" data-name="Path 170" d="M268,367.11s2.56-16.08-15.29-15.79C252.68,351.32,250.28,367.87,268,367.11Z" transform="translate(-12.48 -265.18)" style="fill:#479456"/></g><g id="Group_158" data-name="Group 158"><rect id="Rectangle_158" data-name="Rectangle 158" x="213.9" y="12.75" width="3.37" height="97.08" style="fill:#4a7b5d"/><path id="Path_171" data-name="Path 171" d="M226.4,281s-2.56-16.09,15.29-15.8C241.69,265.18,244.09,281.73,226.4,281Z" transform="translate(-12.48 -265.18)" style="fill:#479456"/><path id="Path_172" data-name="Path 172" d="M229.56,311.11s2.55-16.09-15.29-15.8C214.27,295.31,211.87,311.86,229.56,311.11Z" transform="translate(-12.48 -265.18)" style="fill:#479456"/><path id="Path_173" data-name="Path 173" d="M226.41,327.32s-2.56-16.08,15.28-15.79C241.69,311.53,244.09,328.08,226.41,327.32Z" transform="translate(-12.48 -265.18)" style="fill:#479456"/><path id="Path_174" data-name="Path 174" d="M229.58,367.11s2.55-16.08-15.29-15.79C214.29,351.32,211.89,367.87,229.58,367.11Z" transform="translate(-12.48 -265.18)" style="fill:#479456"/></g><g id="Group_159" data-name="Group 159"><rect id="Rectangle_159" data-name="Rectangle 159" x="174.58" y="12.75" width="3.37" height="97.08" style="fill:#4a7b5d"/><path id="Path_175" data-name="Path 175" d="M187.08,281s-2.56-16.09,15.29-15.8C202.37,265.18,204.77,281.73,187.08,281Z" transform="translate(-12.48 -265.18)" style="fill:#479456"/><path id="Path_176" data-name="Path 176" d="M190.24,311.11S192.79,295,175,295.31C175,295.31,172.55,311.86,190.24,311.11Z" transform="translate(-12.48 -265.18)" style="fill:#479456"/><path id="Path_177" data-name="Path 177" d="M187.09,327.32s-2.56-16.08,15.28-15.79C202.37,311.53,204.77,328.08,187.09,327.32Z" transform="translate(-12.48 -265.18)" style="fill:#479456"/><path id="Path_178" data-name="Path 178" d="M190.26,367.11S192.82,351,175,351.32C175,351.32,172.57,367.87,190.26,367.11Z" transform="translate(-12.48 -265.18)" style="fill:#479456"/></g><g id="Group_160" data-name="Group 160"><rect id="Rectangle_160" data-name="Rectangle 160" x="225.65" y="68.09" width="3.37" height="39.54" style="fill:#4a7b5d"/><path id="Path_179" data-name="Path 179" d="M239.83,337.53s2.56-16.08-15.29-15.79C224.54,321.74,222.14,338.29,239.83,337.53Z" transform="translate(-12.48 -265.18)" style="fill:#479456"/><path id="Path_180" data-name="Path 180" d="M239.75,337.53S237.2,321.45,255,321.74C255,321.74,257.44,338.29,239.75,337.53Z" transform="translate(-12.48 -265.18)" style="fill:#479456"/><path id="Path_181" data-name="Path 181" d="M241.33,364.91s2.56-16.09-15.29-15.8C226,349.11,223.64,365.66,241.33,364.91Z" transform="translate(-12.48 -265.18)" style="fill:#479456"/></g><g id="Group_161" data-name="Group 161"><rect id="Rectangle_161" data-name="Rectangle 161" x="185.5" y="68.09" width="3.37" height="39.54" style="fill:#4a7b5d"/><path id="Path_182" data-name="Path 182" d="M199.68,337.53s2.56-16.08-15.29-15.79C184.39,321.74,182,338.29,199.68,337.53Z" transform="translate(-12.48 -265.18)" style="fill:#479456"/><path id="Path_183" data-name="Path 183" d="M199.61,337.53s-2.56-16.08,15.28-15.79C214.89,321.74,217.29,338.29,199.61,337.53Z" transform="translate(-12.48 -265.18)" style="fill:#479456"/><path id="Path_184" data-name="Path 184" d="M201.18,364.91s2.56-16.09-15.29-15.8C185.89,349.11,183.49,365.66,201.18,364.91Z" transform="translate(-12.48 -265.18)" style="fill:#479456"/></g><g id="Group_162" data-name="Group 162"><rect id="Rectangle_162" data-name="Rectangle 162" x="138.94" y="68.09" width="3.37" height="39.54" style="fill:#4a7b5d"/><path id="Path_185" data-name="Path 185" d="M153.12,337.53s2.55-16.08-15.29-15.79C137.83,321.74,135.43,338.29,153.12,337.53Z" transform="translate(-12.48 -265.18)" style="fill:#479456"/><path id="Path_186" data-name="Path 186" d="M153,337.53s-2.55-16.08,15.29-15.79C168.33,321.74,170.73,338.29,153,337.53Z" transform="translate(-12.48 -265.18)" style="fill:#479456"/><path id="Path_187" data-name="Path 187" d="M154.62,364.91s2.56-16.09-15.29-15.8C139.33,349.11,136.93,365.66,154.62,364.91Z" transform="translate(-12.48 -265.18)" style="fill:#479456"/></g><g id="Group_163" data-name="Group 163"><path id="Path_188" data-name="Path 188" d="M143.61,366.61H279.76l-4.68,27.58s.05,3.3-3.77,3.26c-2.14,0-34.32,0-34.32,0s-1,0-2.28-4.36l-.65-2.54-.68,2.59s-1,4.3-2.33,4.3h-34.8s-2.26.43-3-4.31l-.77-2.88-.74,2.88s-.71,4.33-3,4.33H152.13s-1.47-.22-2.26-3.57S143.61,366.61,143.61,366.61Z" transform="translate(-12.48 -265.18)" style="fill:#a16628"/><rect id="Rectangle_163" data-name="Rectangle 163" x="127.58" y="91.83" width="143.86" height="9.97" rx="1.21" style="fill:#b77934"/></g><g id="Group_165" data-name="Group 165"><circle id="Ellipse_32" data-name="Ellipse 32" cx="151.2" cy="28.87" r="5.87" style="fill:#cd2027"/><path id="Path_189" data-name="Path 189" d="M160.58,290.62s1-.07.57.45a5,5,0,0,0-.75,3.52c.29,1.39,0,2.43-.73,1.6A5.65,5.65,0,0,1,159,292,2.1,2.1,0,0,1,160.58,290.62Z" transform="translate(-12.48 -265.18)" style="fill:#e83326"/><path id="Path_190" data-name="Path 190" d="M162.16,291.76a4.45,4.45,0,0,0,2.65.19c1.65-.3-.36.61-.94.63a2.3,2.3,0,0,1-2-.75C161.61,291.44,162.16,291.76,162.16,291.76Z" transform="translate(-12.48 -265.18)" style="fill:#e83326"/><path id="Path_191" data-name="Path 191" d="M165.84,288.81s3.76,1.9,3.42,5.35a5.19,5.19,0,0,1-4.29,4.7c-1,.07,0-.61,1.14-2.05s1.7-4.43.94-5.8a6.52,6.52,0,0,0-1.93-2.12s-.21-.14,0-.25S165.84,288.81,165.84,288.81Z" transform="translate(-12.48 -265.18)" style="fill:#b01f24"/><g id="Group_164" data-name="Group 164"><path id="Path_192" data-name="Path 192" d="M160.51,291.19a3.71,3.71,0,0,1,2.58-.83c1.56.1,1.86.38,1.86.38a13.16,13.16,0,0,1,2.12,1.15,4.66,4.66,0,0,0-1.73-1.51s-.47-.15-.21-.31a8.77,8.77,0,0,1,3.75-1,5.39,5.39,0,0,0-3.8.47s-.52.27-.44,0,.57-1.52.59-1.75a.29.29,0,0,0-.28-.18l-.86,1.46a4.48,4.48,0,0,0-1.69-3.75,10.24,10.24,0,0,1,1.18,3.94s-.05.38-.29.17-2.17-1.7-3.28-1.54c0,0,2.9,1.73,3,1.93s-.15.17-.15.17S161.05,289.84,160.51,291.19Z" transform="translate(-12.48 -265.18)" style="fill:#37773a"/><path id="Path_193" data-name="Path 193" d="M165.12,287.76l-.66,1.7a.38.38,0,0,1-.4-.18s0,.4.48.35l.65-1.78A.2.2,0,0,0,165.12,287.76Z" transform="translate(-12.48 -265.18)" style="fill:#2a4721"/></g></g><path id="Rectangle_164" data-name="Rectangle 164" d="M142.11,357H282.6a5.26,5.26,0,0,1,5.27,5.26h0a5.27,5.27,0,0,1-5.27,5.26H142.11a5.27,5.27,0,0,1-5.27-5.26h0A5.26,5.26,0,0,1,142.11,357Z" transform="translate(-12.48 -265.18)" style="fill:#b77934"/></g><g id="Group_152" data-name="Group 152"><path id="Path_151" data-name="Path 151" d="M91.17,397s3.91-14.88,2.11-25-5.48-12.25-5.48-12.25-3.17-4,1.26-8.66c0,0-9.61-2.74-15,2.64,0,0-4-2.53,0-6.44,0,0-23.12-1.79-32,14.78s-3.8,34.63-3.8,34.63L42,401.44l47.3.32Z" transform="translate(-12.48 -265.18)" style="fill:#712c15"/><path id="Path_152" data-name="Path 152" d="M40.92,408.46s.18,12.22,11.49,17.87,12.58,7.11,25.53-.73,9.66-18.23,9.66-18.23l-.91-6.75,2.69-11.74-3.91-16.05s-.78-4.89-8-5.25-31.92-1.44-31.92-1.44-4.08,0-4.17,5.8c0,0,.18,27.37,1.27,28.82Z" transform="translate(-12.48 -265.18)" style="fill:#f4af7c"/><path id="Path_153" data-name="Path 153" d="M86.28,402.24l3.17-5s2.92-3.52,4.62,2.31-4.14,10.1-6.57,10Z" transform="translate(-12.48 -265.18)" style="fill:#f4af7c"/><path id="Path_154" data-name="Path 154" d="M43.65,402.24l-3.16-5s-2.92-3.52-4.63,2.31,4.14,10.1,6.57,10Z" transform="translate(-12.48 -265.18)" style="fill:#f4af7c"/><path id="Path_155" data-name="Path 155" d="M48.69,442.24l-21.37,5.94,6,33.1H94.65l6-33.55-19.75-5.59Z" transform="translate(-12.48 -265.18)" style="fill:#60171b"/><path id="Path_156" data-name="Path 156" d="M53,441.13,48,442.41s.11,15.77,17.16,15.77S81.85,442.5,81.85,442.5l-5.15-1.37Z" transform="translate(-12.48 -265.18)" style="fill:#451410"/><path id="Path_157" data-name="Path 157" d="M56.78,426.86v13.42l-4.73,1.05S51,453.7,64.88,453.7,77.5,441.3,77.5,441.3l-4.63-1.23-.11-13.21Z" transform="translate(-12.48 -265.18)" style="fill:#f4af7c"/><g id="Group_151" data-name="Group 151"><path id="Path_158" data-name="Path 158" d="M33.51,480.63s4.21-26.68-4.33-32.85c0,0-11.31,1.05-13.41,12.22s-3.29,21.29-3.29,21.29H33.37Z" transform="translate(-12.48 -265.18)" style="fill:#491515"/><path id="Path_159" data-name="Path 159" d="M94.51,480.63s-2.42-26.71,6.12-32.89c0,0,13.27,1.08,15.38,12.26s3.28,21.29,3.28,21.29H94.65Z" transform="translate(-12.48 -265.18)" style="fill:#491515"/></g><path id="Path_160" data-name="Path 160" d="M56.69,428.49s8.49,1.69,16.2-.08v3.83s-16.11.33-16.11,6.4S56.69,428,56.69,428.49Z" transform="translate(-12.48 -265.18)" style="fill:#e38f5e"/><ellipse id="Ellipse_30" data-name="Ellipse 30" cx="41.32" cy="129.38" rx="2.4" ry="3.6" style="fill:#4d2713"/><ellipse id="Ellipse_31" data-name="Ellipse 31" cx="62.9" cy="129.38" rx="2.4" ry="3.6" style="fill:#4d2713"/><path id="Path_161" data-name="Path 161" d="M69.8,385l.27,2.88s10.82-.34,12.26.42c0,0,.82.13.81-1.06s-.28-1.56-1.67-1.82S69.8,385,69.8,385Z" transform="translate(-12.48 -265.18)" style="fill:#4d2713"/><path id="Path_162" data-name="Path 162" d="M59.18,385l-.27,2.88s-10.82-.34-12.26.42c0,0-.82.13-.81-1.06s.28-1.56,1.67-1.82S59.18,385,59.18,385Z" transform="translate(-12.48 -265.18)" style="fill:#4d2713"/><path id="Path_163" data-name="Path 163" d="M57.87,413.36H70.72S65.15,420.49,57.87,413.36Z" transform="translate(-12.48 -265.18)" style="fill:#fff"/><path id="Path_164" data-name="Path 164" d="M42.42,400.62s-1.91-15.06-.12-18.89c0,0,1-11.24,10.4-11.24h24s9.07.18,9.07,10c0,0,2.18,4.68.87,21.06,0,0,5-14.8,3.93-20.16-2.52-13-13.82-24.84-31.64-23.53s-17,10.38-19.06,18.27S42.42,400.62,42.42,400.62Z" transform="translate(-12.48 -265.18)" style="fill:#6c2d1a"/></g><g id="Group_155" data-name="Group 155"><rect id="Rectangle_149" data-name="Rectangle 149" x="81.93" y="138.49" width="42.6" height="77.51" rx="9.93" style="fill:#425355"/><rect id="Rectangle_150" data-name="Rectangle 150" x="83.8" y="140.14" width="38.86" height="73.8" rx="9.93" style="fill:#fff"/><path id="Rectangle_151" data-name="Rectangle 151" d="M106.62,403.68H124.8a2.29,2.29,0,0,1,2.29,2.29h0a2.29,2.29,0,0,1-2.29,2.3H106.62a2.3,2.3,0,0,1-2.29-2.3h0A2.3,2.3,0,0,1,106.62,403.68Z" transform="translate(-12.48 -265.18)" style="fill:#425355"/><rect id="Rectangle_152" data-name="Rectangle 152" x="85.62" y="164.68" width="35.14" height="18.7" style="fill:#a7c3a5"/><g id="S" style="isolation:isolate"><text transform="translate(97.65 179.46)" style="isolation:isolate;font-size:16.55158042907715px;fill:#fedb04;font-family:Montserrat-Regular, Montserrat">S</text></g><g id="Group_154" data-name="Group 154"><line id="Line_15" data-name="Line 15" x1="103.92" y1="166.07" x2="103.92" y2="180.58" style="fill:none;stroke:#fedb04;stroke-miterlimit:10;stroke-width:1.5px"/><line id="Line_16" data-name="Line 16" x1="101.79" y1="166.12" x2="101.79" y2="180.62" style="fill:none;stroke:#fedb04;stroke-miterlimit:10;stroke-width:1.5px"/></g><path id="Path_165" data-name="Path 165" d="M109.66,462.77l4.9,3.15,8.8-11.44,2.5,1.88-10.75,14.08-7.45-5.05Z" transform="translate(-12.48 -265.18)" style="fill:#7bba5a"/></g><path id="Path_166" data-name="Path 166" d="M111.8,402.87s-1.18-39.39,37.9-51.83l3.56,4.45,3.85-10.37-14.51-2.66,3.55,4.44S111.21,349.12,111.8,402.87Z" transform="translate(-12.48 -265.18)" style="fill:#8b489c"/></svg>