<svg id="Layer_9" data-name="Layer 9" xmlns="http://www.w3.org/2000/svg" viewBox="0 0 233.24 180.42"><g id="Group_167" data-name="Group 167"><path id="Path_151" data-name="Path 151" d="M366.22,396.23s3.85-14.7,2.08-24.71-5.42-12.09-5.42-12.09-3.13-4,1.25-8.54c0,0-9.49-2.71-14.8,2.6,0,0-4-2.5,0-6.36,0,0-22.83-1.77-31.58,14.6S314,395.92,314,395.92l3.65,4.69,46.7.31Z" transform="translate(-273.98 -299.01)" style="fill:#712c15"/><path id="Path_152" data-name="Path 152" d="M316.6,407.53s.18,12.06,11.34,17.64,12.43,7,25.21-.72,9.54-18,9.54-18l-.9-6.66,2.65-11.59-3.86-15.84s-.77-4.83-7.93-5.19-31.51-1.42-31.51-1.42-4,0-4.12,5.73c0,0,.18,27,1.25,28.45Z" transform="translate(-273.98 -299.01)" style="fill:#f4af7c"/><path id="Path_153" data-name="Path 153" d="M361.39,401.39l3.12-4.92s2.88-3.49,4.56,2.28-4.08,10-6.48,9.85Z" transform="translate(-273.98 -299.01)" style="fill:#f4af7c"/><path id="Path_154" data-name="Path 154" d="M319.3,401.39l-3.13-4.92s-2.88-3.49-4.56,2.28,4.08,10,6.48,9.85Z" transform="translate(-273.98 -299.01)" style="fill:#f4af7c"/><path id="Path_155" data-name="Path 155" d="M324.27,440.88l-21.1,5.86,6,32.69h60.5l5.9-33.12-19.5-5.52Z" transform="translate(-273.98 -299.01)" style="fill:#60171b"/><path id="Path_156" data-name="Path 156" d="M328.47,439.79l-4.84,1.26s.11,15.56,16.94,15.56S357,441.13,357,441.13l-5.08-1.35Z" transform="translate(-273.98 -299.01)" style="fill:#451410"/><path id="Path_157" data-name="Path 157" d="M332.26,425.69V439l-4.67,1s-1,12.22,12.66,12.22S352.72,440,352.72,440l-4.58-1.21-.1-13Z" transform="translate(-273.98 -299.01)" style="fill:#f4af7c"/><g id="Group_151" data-name="Group 151"><path id="Path_158" data-name="Path 158" d="M309.29,478.78s4.15-26.34-4.28-32.44c0,0-11.16,1-13.24,12.07s-3.24,21-3.24,21h20.62Z" transform="translate(-273.98 -299.01)" style="fill:#491515"/><path id="Path_159" data-name="Path 159" d="M369.51,478.78s-2.39-26.37,6-32.47c0,0,13.11,1.07,15.18,12.1s3.25,21,3.25,21H369.65Z" transform="translate(-273.98 -299.01)" style="fill:#491515"/></g><path id="Path_160" data-name="Path 160" d="M332.17,427.3s8.38,1.68,16-.07V431s-15.9.32-15.9,6.32S332.17,426.8,332.17,427.3Z" transform="translate(-273.98 -299.01)" style="fill:#e38f5e"/><ellipse id="Ellipse_30" data-name="Ellipse 30" cx="55.35" cy="94.8" rx="2.37" ry="3.55" style="fill:#4d2713"/><ellipse id="Ellipse_31" data-name="Ellipse 31" cx="76.65" cy="94.8" rx="2.37" ry="3.55" style="fill:#4d2713"/><path id="Path_161" data-name="Path 161" d="M345.11,384.39l.27,2.84s10.68-.34,12.1.4c0,0,.82.14.8-1s-.28-1.54-1.65-1.79S345.11,384.39,345.11,384.39Z" transform="translate(-273.98 -299.01)" style="fill:#4d2713"/><path id="Path_162" data-name="Path 162" d="M334.63,384.39l-.27,2.84s-10.68-.34-12.1.4c0,0-.82.14-.8-1s.28-1.54,1.65-1.79S334.63,384.39,334.63,384.39Z" transform="translate(-273.98 -299.01)" style="fill:#4d2713"/><path id="Path_163" data-name="Path 163" d="M333.34,412.37H346S340.52,419.4,333.34,412.37Z" transform="translate(-273.98 -299.01)" style="fill:#fff"/><path id="Path_164" data-name="Path 164" d="M318.08,399.79s-1.89-14.87-.12-18.65c0,0,1-11.09,10.27-11.09H352s9,.17,9,9.85c0,0,2.15,4.62.85,20.79,0,0,4.91-14.61,3.88-19.9C363.18,368,352,356.26,334.42,357.56s-16.81,10.24-18.82,18S318.08,399.79,318.08,399.79Z" transform="translate(-273.98 -299.01)" style="fill:#6c2d1a"/></g><g id="Group_168" data-name="Group 168"><rect id="Rectangle_149" data-name="Rectangle 149" y="105.66" width="41.03" height="74.66" rx="6.31" style="fill:#425355"/><rect id="Rectangle_150" data-name="Rectangle 150" x="1.8" y="107.25" width="37.43" height="71.08" rx="6.31" style="fill:#fff"/><rect id="Rectangle_151" data-name="Rectangle 151" x="9.55" y="105.67" width="21.92" height="4.41" rx="2.21" style="fill:#425355"/></g><rect id="Rectangle_165" data-name="Rectangle 165" x="5.08" y="117.86" width="31.56" height="8.68" rx="1.58" style="fill:#425355;opacity:0.29899999499321;isolation:isolate"/><rect id="Rectangle_166" data-name="Rectangle 166" x="5.08" y="130.49" width="31.56" height="7.89" rx="1.58" style="fill:#425355;opacity:0.29899999499321;isolation:isolate"/><rect id="Rectangle_167" data-name="Rectangle 167" x="5.08" y="143.11" width="31.56" height="7.89" rx="1.58" style="fill:#425355;opacity:0.29899999499321;isolation:isolate"/><rect id="Rectangle_168" data-name="Rectangle 168" x="5.08" y="154.95" width="31.56" height="8.68" rx="1.58" style="fill:#425355;opacity:0.29899999499321;isolation:isolate"/><g id="Group_178" data-name="Group 178"><path id="Path_194" data-name="Path 194" d="M418.25,362.15A19.3,19.3,0,0,0,404,374.62c-4,10.91-2.08,15.07-2.08,15.07s1.35,4.58-1,7.28.35,7.27.35,7.27,2.25,3.64.69,6.23a8.13,8.13,0,0,0,.35,8.15,5,5,0,0,1-.17,6.59c-3,2.53-1.68,6.48-.82,9.56a10.27,10.27,0,0,1-.23,5.71s-2.69,6.88,2.92,8,61.22.24,61.22.24,8-.77,8.28-7.46c.23-5.23.24-7.23.24-7.23s5.48-5.25,1.28-9.57.12-8.28.12-8.28,4.31-7.81-.82-10.73-1.75-9.21-1.75-9.21,2.33-8.39-3.61-10.73c0,0,1.74-11.31-7.12-18.42S436.68,348.17,418.25,362.15Z" transform="translate(-273.98 -299.01)" style="fill:#46250f"/><rect id="Rectangle_173" data-name="Rectangle 173" x="144.9" y="116.72" width="37.33" height="33.95" style="fill:#311c0e"/><g id="Group_171" data-name="Group 171"><rect id="Rectangle_174" data-name="Rectangle 174" x="186.27" y="159.4" width="13.37" height="20.92" style="fill:#f3b07f"/><rect id="Rectangle_175" data-name="Rectangle 175" x="130.19" y="159.4" width="13.37" height="20.92" style="fill:#f3b07f"/></g><path id="Path_195" data-name="Path 195" d="M410.56,448.49l18-6.39h19.06l20.34,6.78-8.35,24.74-1.48,5.81h-39Z" transform="translate(-273.98 -299.01)" style="fill:#fdeb01"/><path id="Path_196" data-name="Path 196" d="M398.33,473.55s5.6-29.86,17.17-25.09S418.27,478,418.27,478,410.08,478.93,398.33,473.55Z" transform="translate(-273.98 -299.01)" style="fill:#7a6529"/><path id="Path_197" data-name="Path 197" d="M477.72,472.7s-2.39-27.25-15.32-24.58c-10.67,2.2-2.66,29.64-2.66,29.64S472.8,480.29,477.72,472.7Z" transform="translate(-273.98 -299.01)" style="fill:#7a6529"/><path id="Path_198" data-name="Path 198" d="M431.22,441.06l-3.08,1s.24,7.75,9.72,7.75S448,442.21,448,442.21l-3.32-1.38Z" transform="translate(-273.98 -299.01)" style="fill:#7d1418"/><path id="Path_199" data-name="Path 199" d="M431.21,429.5v12.42s-.12,5.26,6.82,5.26,7.16-5.6,7.16-5.6V428.71h-14.1Z" transform="translate(-273.98 -299.01)" style="fill:#f6b07d"/><g id="Group_172" data-name="Group 172"><path id="Path_200" data-name="Path 200" d="M412.27,407.16l-3.54-8.75s-5.55,2.52-2.86,9.09,8.42,4.21,8.42,4.21Z" transform="translate(-273.98 -299.01)" style="fill:#f6b07d"/></g><path id="Path_201" data-name="Path 201" d="M411,401.82s3.12,29,26.89,29c25.59,0,26.94-28.13,26.94-28.13s2.28-37.94-25.19-38.11C408.12,364.42,411,401.82,411,401.82Z" transform="translate(-273.98 -299.01)" style="fill:#f6b07d"/><ellipse id="Ellipse_33" data-name="Ellipse 33" cx="153.89" cy="99.89" rx="2.32" ry="3.57" style="fill:#4f2512"/><ellipse id="Ellipse_34" data-name="Ellipse 34" cx="175.34" cy="99.77" rx="2.32" ry="3.57" style="fill:#4f2512"/><path id="Path_202" data-name="Path 202" d="M444.34,390.22h7.79s4.49-.21,6.24,2.32H444.48Z" transform="translate(-273.98 -299.01)" style="fill:#592f14"/><path id="Path_203" data-name="Path 203" d="M432.76,390.12H425s-4.49-.21-6.24,2.31h13.89Z" transform="translate(-273.98 -299.01)" style="fill:#592f14"/><path id="Path_204" data-name="Path 204" d="M433.18,415.27H446S440.41,423.67,433.18,415.27Z" transform="translate(-273.98 -299.01)" style="fill:#fff"/><path id="Path_205" data-name="Path 205" d="M431.19,430.09a38.27,38.27,0,0,0,14-.06v3.31s-13.92.28-13.92,5.53S431.19,429.66,431.19,430.09Z" transform="translate(-273.98 -299.01)" style="fill:#e38f5e"/><path id="Path_206" data-name="Path 206" d="M411.41,405.3s-1.19-11.9,4.1-16.66,11.5-10.31,9.91-15.33c0,0,5.56,14.84,20,15.33,18.22.62,14.27,9.65,14.27,9.65a13.25,13.25,0,0,0-1.45,6.21c.08,2.07,3.05,7.74,5.56,8.93,0,0,12-35.79-6.81-46.89s-33.91-1.79-37.08.45S405.07,395.65,411.41,405.3Z" transform="translate(-273.98 -299.01)" style="fill:#46250f"/></g><g id="Group_170" data-name="Group 170"><rect id="Rectangle_149-2" data-name="Rectangle 149-2" x="192.2" y="105.75" width="41.03" height="74.66" rx="6.31" style="fill:#425355"/><rect id="Rectangle_150-2" data-name="Rectangle 150-2" x="194.01" y="107.34" width="37.43" height="71.08" rx="6.31" style="fill:#fff"/><rect id="Rectangle_151-2" data-name="Rectangle 151-2" x="201.76" y="105.76" width="21.92" height="4.41" rx="2.21" style="fill:#425355"/></g><rect id="Rectangle_169" data-name="Rectangle 169" x="197.73" y="120.32" width="30.77" height="7.89" rx="1.58" style="fill:#425355;opacity:0.29899999499321;isolation:isolate"/><rect id="Rectangle_170" data-name="Rectangle 170" x="197.73" y="132.15" width="30.77" height="8.68" rx="1.58" style="fill:#425355;opacity:0.29899999499321;isolation:isolate"/><rect id="Rectangle_171" data-name="Rectangle 171" x="197.73" y="144.78" width="30.77" height="8.68" rx="1.58" style="fill:#425355;opacity:0.29899999499321;isolation:isolate"/><rect id="Rectangle_172" data-name="Rectangle 172" x="197.73" y="157.4" width="30.77" height="8.68" rx="1.58" style="fill:#425355;opacity:0.29899999499321;isolation:isolate"/><g id="Group_180" data-name="Group 180"><ellipse id="Ellipse_35" data-name="Ellipse 35" cx="114.15" cy="28.27" rx="24.27" ry="23.27" style="fill:none;stroke:#be9c63;stroke-miterlimit:10;stroke-width:10px"/><rect id="Rectangle_186" data-name="Rectangle 186" x="79.66" y="24.56" width="68.98" height="45.43" rx="1.58" style="fill:#c9c9c9"/><g id="Group_179" data-name="Group 179"><circle id="Ellipse_36" data-name="Ellipse 36" cx="114.15" cy="40.84" r="5.6" style="fill:#646565"/><rect id="Rectangle_187" data-name="Rectangle 187" x="111.93" y="43.48" width="4.22" height="14.57" style="fill:#646565"/></g></g></svg>