<svg id="Layer_9" data-name="Layer 9" xmlns="http://www.w3.org/2000/svg" viewBox="0 0 278.32 180.38"><g id="Group_167" data-name="Group 167"><path id="Path_151" data-name="Path 151" d="M366.22,398.09s3.85-14.7,2.08-24.71-5.42-12.09-5.42-12.09-3.13-4,1.25-8.55c0,0-9.49-2.71-14.8,2.61,0,0-4-2.5,0-6.36,0,0-22.83-1.77-31.58,14.6S314,397.78,314,397.78l3.65,4.69,46.7.31Z" transform="translate(-273.98 -300.91)" style="fill:#712c15"/><path id="Path_152" data-name="Path 152" d="M316.6,409.39s.18,12.06,11.34,17.64,12.43,7,25.21-.72,9.54-18,9.54-18l-.9-6.66,2.65-11.59-3.86-15.84s-.77-4.83-7.93-5.19-31.51-1.42-31.51-1.42-4,0-4.12,5.72c0,0,.18,27,1.25,28.46Z" transform="translate(-273.98 -300.91)" style="fill:#f4af7c"/><path id="Path_153" data-name="Path 153" d="M361.39,403.25l3.12-4.93s2.88-3.48,4.56,2.29-4.08,10-6.48,9.84Z" transform="translate(-273.98 -300.91)" style="fill:#f4af7c"/><path id="Path_154" data-name="Path 154" d="M319.3,403.25l-3.13-4.93s-2.88-3.48-4.56,2.29,4.08,10,6.48,9.84Z" transform="translate(-273.98 -300.91)" style="fill:#f4af7c"/><path id="Path_155" data-name="Path 155" d="M324.27,442.74l-21.1,5.86,6,32.69h60.5l5.9-33.13-19.5-5.51Z" transform="translate(-273.98 -300.91)" style="fill:#60171b"/><path id="Path_156" data-name="Path 156" d="M328.47,441.64l-4.84,1.27s.11,15.56,16.94,15.56S357,443,357,443l-5.08-1.35Z" transform="translate(-273.98 -300.91)" style="fill:#451410"/><path id="Path_157" data-name="Path 157" d="M332.26,427.55v13.26l-4.67,1s-1,12.22,12.66,12.22,12.47-12.25,12.47-12.25l-4.58-1.21-.1-13.05Z" transform="translate(-273.98 -300.91)" style="fill:#f4af7c"/><g id="Group_151" data-name="Group 151"><path id="Path_158" data-name="Path 158" d="M309.29,480.64s4.15-26.34-4.28-32.44c0,0-11.16,1-13.24,12.07s-3.24,21-3.24,21h20.62Z" transform="translate(-273.98 -300.91)" style="fill:#491515"/><path id="Path_159" data-name="Path 159" d="M369.51,480.64s-2.39-26.37,6-32.47c0,0,13.11,1.07,15.18,12.1s3.25,21,3.25,21H369.65Z" transform="translate(-273.98 -300.91)" style="fill:#491515"/></g><path id="Path_160" data-name="Path 160" d="M332.17,429.16s8.38,1.67,16-.08v3.79s-15.9.32-15.9,6.32S332.17,428.66,332.17,429.16Z" transform="translate(-273.98 -300.91)" style="fill:#e38f5e"/><ellipse id="Ellipse_30" data-name="Ellipse 30" cx="55.35" cy="94.76" rx="2.37" ry="3.55" style="fill:#4d2713"/><ellipse id="Ellipse_31" data-name="Ellipse 31" cx="76.65" cy="94.76" rx="2.37" ry="3.55" style="fill:#4d2713"/><path id="Path_161" data-name="Path 161" d="M345.11,386.25l.27,2.84s10.68-.34,12.1.4c0,0,.82.14.8-1s-.28-1.54-1.65-1.8S345.11,386.25,345.11,386.25Z" transform="translate(-273.98 -300.91)" style="fill:#4d2713"/><path id="Path_162" data-name="Path 162" d="M334.63,386.25l-.27,2.84s-10.68-.34-12.1.4c0,0-.82.14-.8-1s.28-1.54,1.65-1.8S334.63,386.25,334.63,386.25Z" transform="translate(-273.98 -300.91)" style="fill:#4d2713"/><path id="Path_163" data-name="Path 163" d="M333.34,414.22H346S340.52,421.26,333.34,414.22Z" transform="translate(-273.98 -300.91)" style="fill:#fff"/><path id="Path_164" data-name="Path 164" d="M318.08,401.65S316.19,386.78,318,383c0,0,1-11.1,10.27-11.1H352s9,.18,9,9.86c0,0,2.15,4.62.85,20.79,0,0,4.91-14.61,3.88-19.9-2.47-12.82-13.64-24.53-31.23-23.23s-16.81,10.24-18.82,18S318.08,401.65,318.08,401.65Z" transform="translate(-273.98 -300.91)" style="fill:#6c2d1a"/></g><g id="Group_168" data-name="Group 168"><rect id="Rectangle_149" data-name="Rectangle 149" y="105.62" width="41.03" height="74.66" rx="6.31" style="fill:#425355"/><rect id="Rectangle_150" data-name="Rectangle 150" x="1.8" y="107.21" width="37.43" height="71.08" rx="6.31" style="fill:#fff"/><rect id="Rectangle_151" data-name="Rectangle 151" x="9.55" y="105.63" width="21.92" height="4.41" rx="2.21" style="fill:#425355"/></g><rect id="Rectangle_165" data-name="Rectangle 165" x="5.08" y="117.82" width="31.56" height="8.68" rx="1.58" style="fill:#425355;opacity:0.29899999499321;isolation:isolate"/><rect id="Rectangle_166" data-name="Rectangle 166" x="5.08" y="130.45" width="31.56" height="7.89" rx="1.58" style="fill:#425355;opacity:0.29899999499321;isolation:isolate"/><rect id="Rectangle_167" data-name="Rectangle 167" x="5.08" y="143.07" width="31.56" height="7.89" rx="1.58" style="fill:#425355;opacity:0.29899999499321;isolation:isolate"/><rect id="Rectangle_168" data-name="Rectangle 168" x="5.08" y="154.9" width="31.56" height="8.68" rx="1.58" style="fill:#425355;opacity:0.29899999499321;isolation:isolate"/><g id="Group_178" data-name="Group 178"><path id="Path_194" data-name="Path 194" d="M463.33,363.92a19.3,19.3,0,0,0-14.21,12.47c-4,10.92-2.08,15.07-2.08,15.07s1.36,4.58-1,7.28.35,7.27.35,7.27,2.25,3.64.69,6.24a8.11,8.11,0,0,0,.35,8.14,5,5,0,0,1-.17,6.59c-3,2.53-1.68,6.48-.82,9.56a10.22,10.22,0,0,1-.23,5.72s-2.68,6.87,2.92,8,61.22.24,61.22.24,8-.77,8.28-7.46c.23-5.23.24-7.23.24-7.23s5.48-5.25,1.28-9.57.12-8.28.12-8.28,4.31-7.81-.82-10.73-1.75-9.21-1.75-9.21,2.33-8.39-3.61-10.73c0,0,1.74-11.31-7.12-18.42S481.76,349.94,463.33,363.92Z" transform="translate(-273.98 -300.91)" style="fill:#46250f"/><rect id="Rectangle_173" data-name="Rectangle 173" x="189.98" y="116.59" width="37.33" height="33.95" style="fill:#311c0e"/><g id="Group_171" data-name="Group 171"><rect id="Rectangle_174" data-name="Rectangle 174" x="231.35" y="159.27" width="13.37" height="20.92" style="fill:#f3b07f"/><rect id="Rectangle_175" data-name="Rectangle 175" x="175.27" y="159.27" width="13.37" height="20.92" style="fill:#f3b07f"/></g><path id="Path_195" data-name="Path 195" d="M455.64,450.26l18-6.39h19.06L513,450.65l-8.35,24.74-1.48,5.81h-39Z" transform="translate(-273.98 -300.91)" style="fill:#fdeb01"/><path id="Path_196" data-name="Path 196" d="M443.41,475.32s5.61-29.86,17.17-25.09,2.77,29.54,2.77,29.54S455.16,480.7,443.41,475.32Z" transform="translate(-273.98 -300.91)" style="fill:#7a6529"/><path id="Path_197" data-name="Path 197" d="M522.8,474.47s-2.39-27.25-15.31-24.58c-10.68,2.2-2.67,29.64-2.67,29.64S517.88,482.06,522.8,474.47Z" transform="translate(-273.98 -300.91)" style="fill:#7a6529"/><path id="Path_198" data-name="Path 198" d="M476.3,442.83l-3.08,1s.25,7.75,9.72,7.75S493.12,444,493.12,444l-3.32-1.38Z" transform="translate(-273.98 -300.91)" style="fill:#7d1418"/><path id="Path_199" data-name="Path 199" d="M476.29,431.27v12.42s-.12,5.26,6.82,5.26,7.16-5.6,7.16-5.6V430.49h-14.1Z" transform="translate(-273.98 -300.91)" style="fill:#f6b07d"/><g id="Group_172" data-name="Group 172"><path id="Path_200" data-name="Path 200" d="M457.35,408.93l-3.53-8.75s-5.56,2.52-2.87,9.09,8.42,4.21,8.42,4.21Z" transform="translate(-273.98 -300.91)" style="fill:#f6b07d"/></g><path id="Path_201" data-name="Path 201" d="M456.12,403.59s3.12,29,26.89,29c25.59,0,26.94-28.13,26.94-28.13s2.28-37.94-25.19-38.11C453.2,366.19,456.12,403.59,456.12,403.59Z" transform="translate(-273.98 -300.91)" style="fill:#f6b07d"/><ellipse id="Ellipse_33" data-name="Ellipse 33" cx="198.98" cy="99.76" rx="2.32" ry="3.57" style="fill:#4f2512"/><ellipse id="Ellipse_34" data-name="Ellipse 34" cx="220.42" cy="99.64" rx="2.32" ry="3.57" style="fill:#4f2512"/><path id="Path_202" data-name="Path 202" d="M489.42,392h7.79s4.49-.21,6.24,2.32H489.56Z" transform="translate(-273.98 -300.91)" style="fill:#592f14"/><path id="Path_203" data-name="Path 203" d="M477.84,391.89h-7.79s-4.49-.21-6.24,2.31H477.7Z" transform="translate(-273.98 -300.91)" style="fill:#592f14"/><path id="Path_204" data-name="Path 204" d="M478.26,417H491S485.5,425.44,478.26,417Z" transform="translate(-273.98 -300.91)" style="fill:#fff"/><path id="Path_205" data-name="Path 205" d="M476.27,431.86a38.27,38.27,0,0,0,14-.06v3.31s-13.92.28-13.92,5.53S476.27,431.43,476.27,431.86Z" transform="translate(-273.98 -300.91)" style="fill:#e38f5e"/><path id="Path_206" data-name="Path 206" d="M456.49,407.07s-1.19-11.9,4.1-16.66,11.5-10.31,9.92-15.33c0,0,5.55,14.84,20,15.33,18.22.62,14.27,9.65,14.27,9.65a13.4,13.4,0,0,0-1.45,6.21c.08,2.07,3,7.74,5.56,8.93,0,0,12-35.79-6.81-46.89s-33.91-1.79-37.08.45S450.15,397.42,456.49,407.07Z" transform="translate(-273.98 -300.91)" style="fill:#46250f"/></g><g id="Group_170" data-name="Group 170"><rect id="Rectangle_149-2" data-name="Rectangle 149-2" x="237.28" y="105.62" width="41.03" height="74.66" rx="6.31" style="fill:#425355"/><rect id="Rectangle_150-2" data-name="Rectangle 150-2" x="239.09" y="107.21" width="37.43" height="71.08" rx="6.31" style="fill:#fff"/><rect id="Rectangle_151-2" data-name="Rectangle 151-2" x="246.84" y="105.63" width="21.92" height="4.41" rx="2.21" style="fill:#425355"/></g><rect id="Rectangle_169" data-name="Rectangle 169" x="242.81" y="120.19" width="30.77" height="7.89" rx="1.58" style="fill:#425355;opacity:0.29899999499321;isolation:isolate"/><rect id="Rectangle_170" data-name="Rectangle 170" x="242.81" y="132.02" width="30.77" height="8.68" rx="1.58" style="fill:#425355;opacity:0.29899999499321;isolation:isolate"/><rect id="Rectangle_171" data-name="Rectangle 171" x="242.81" y="144.65" width="30.77" height="8.68" rx="1.58" style="fill:#425355;opacity:0.29899999499321;isolation:isolate"/><rect id="Rectangle_172" data-name="Rectangle 172" x="242.81" y="157.27" width="30.77" height="8.68" rx="1.58" style="fill:#425355;opacity:0.29899999499321;isolation:isolate"/><g id="Group_180" data-name="Group 180"><ellipse id="Ellipse_35" data-name="Ellipse 35" cx="135.54" cy="28.27" rx="24.27" ry="23.27" style="fill:none;stroke:#be9c63;stroke-miterlimit:10;stroke-width:10px"/><rect id="Rectangle_186" data-name="Rectangle 186" x="101.05" y="24.56" width="68.98" height="45.43" rx="1.58" style="fill:#c9c9c9"/><g id="Group_179" data-name="Group 179"><circle id="Ellipse_36" data-name="Ellipse 36" cx="135.54" cy="40.84" r="5.6" style="fill:#646565"/><rect id="Rectangle_187" data-name="Rectangle 187" x="133.32" y="43.48" width="4.22" height="14.57" style="fill:#646565"/></g></g></svg>