<svg id="Layer_9" data-name="Layer 9" xmlns="http://www.w3.org/2000/svg" viewBox="0 0 218.25 171.47"><g id="Group_150" data-name="Group 150"><g id="Group_145" data-name="Group 145"><path id="Path_96" data-name="Path 96" d="M425.36,49S470,13.81,503.17,55.77c0,0,49.4-14.21,50.08,34.51,0,0,28.42,10.82,9.47,48.72,0,0,6.77,34.51-26.39,29.1,0,0-6.09,47.36-62.93,18.27,0,0-32.48,25.71-76.47-9.48,0,0-63.6,8.12-39.24-57.51,0,0-23-33.16,16.24-45.34C373.93,74,380,32.76,425.36,49Z" transform="translate(-350.99 -35.19)" style="fill:#e0e0e0"/><g id="Group_135" data-name="Group 135"><g id="Group_128" data-name="Group 128"><circle id="Ellipse_20" data-name="Ellipse 20" cx="59.53" cy="86.14" r="16.32" style="fill:#cd2027"/><path id="Path_97" data-name="Path 97" d="M401.88,111.77s2.68-.2,1.62,1.26a13.79,13.79,0,0,0-2.09,9.78c.8,3.87-.13,6.77-2.05,4.45s-2.93-8.53-1.82-11.76A5.83,5.83,0,0,1,401.88,111.77Z" transform="translate(-350.99 -35.19)" style="fill:#e83326"/><path id="Path_98" data-name="Path 98" d="M406.28,114.93a12.53,12.53,0,0,0,7.39.55c4.58-.84-1,1.7-2.62,1.75s-4-.19-5.47-2.1C404.75,114.05,406.28,114.93,406.28,114.93Z" transform="translate(-350.99 -35.19)" style="fill:#e83326"/><path id="Path_99" data-name="Path 99" d="M416.54,106.76S427,112,426,121.62a14.43,14.43,0,0,1-11.91,13.07c-2.74.21.1-1.69,3.16-5.69s4.73-12.34,2.63-16.13a18.39,18.39,0,0,0-5.37-5.9s-.59-.4-.08-.71S416.54,106.76,416.54,106.76Z" transform="translate(-350.99 -35.19)" style="fill:#b01f24"/><g id="Group_127" data-name="Group 127"><path id="Path_100" data-name="Path 100" d="M401.7,113.35a10.42,10.42,0,0,1,7.17-2.31c4.34.27,5.18,1,5.18,1s4.78,2.15,5.91,3.23c0,0-2.36-3.38-4.84-4.22,0,0-1.29-.42-.57-.86A24.9,24.9,0,0,1,425,107.46a15.09,15.09,0,0,0-10.59,1.31s-1.43.75-1.22.06,1.58-4.24,1.64-4.87a.82.82,0,0,0-.77-.51l-2.4,4.07s.57-6.52-4.69-10.41c0,0,3.54,6.74,3.29,11,0,0-.16,1-.83.47s-6-4.71-9.1-4.29c0,0,8.05,4.82,8.44,5.36s-.41.5-.41.5S403.2,109.59,401.7,113.35Z" transform="translate(-350.99 -35.19)" style="fill:#37773a"/><path id="Path_101" data-name="Path 101" d="M414.53,103.82l-1.83,4.72a1.07,1.07,0,0,1-1.11-.5s0,1.13,1.32,1l1.81-4.93A.46.46,0,0,0,414.53,103.82Z" transform="translate(-350.99 -35.19)" style="fill:#2a4721"/></g></g><g id="Group_130" data-name="Group 130"><circle id="Ellipse_21" data-name="Ellipse 21" cx="84.76" cy="86.14" r="16.32" style="fill:#cd2027"/><path id="Path_102" data-name="Path 102" d="M427.11,111.77s2.67-.2,1.62,1.26a13.79,13.79,0,0,0-2.09,9.78c.8,3.87-.13,6.77-2.05,4.45s-2.93-8.53-1.82-11.76A5.82,5.82,0,0,1,427.11,111.77Z" transform="translate(-350.99 -35.19)" style="fill:#e83326"/><path id="Path_103" data-name="Path 103" d="M431.51,114.93a12.5,12.5,0,0,0,7.38.55c4.59-.84-1,1.7-2.61,1.75s-4-.19-5.47-2.1C430,114.05,431.51,114.93,431.51,114.93Z" transform="translate(-350.99 -35.19)" style="fill:#e83326"/><path id="Path_104" data-name="Path 104" d="M441.77,106.76s10.44,5.27,9.49,14.86a14.44,14.44,0,0,1-11.92,13.07c-2.74.21.11-1.69,3.17-5.69s4.73-12.34,2.62-16.13a18.14,18.14,0,0,0-5.36-5.9s-.59-.4-.09-.71S441.77,106.76,441.77,106.76Z" transform="translate(-350.99 -35.19)" style="fill:#b01f24"/><g id="Group_129" data-name="Group 129"><path id="Path_105" data-name="Path 105" d="M426.92,113.35A10.45,10.45,0,0,1,434.1,111c4.34.27,5.17,1,5.17,1s4.78,2.15,5.92,3.23c0,0-2.36-3.38-4.84-4.22,0,0-1.29-.42-.57-.86a24.82,24.82,0,0,1,10.43-2.78,15.06,15.06,0,0,0-10.58,1.31s-1.43.75-1.23.06,1.59-4.24,1.65-4.87a.83.83,0,0,0-.78-.51l-2.39,4.07s.57-6.52-4.7-10.41c0,0,3.55,6.74,3.29,11,0,0-.15,1-.82.47s-6-4.71-9.11-4.29c0,0,8.06,4.82,8.45,5.36s-.41.5-.41.5S428.42,109.59,426.92,113.35Z" transform="translate(-350.99 -35.19)" style="fill:#37773a"/><path id="Path_106" data-name="Path 106" d="M439.76,103.82l-1.84,4.72a1.06,1.06,0,0,1-1.1-.5s-.05,1.13,1.32,1l1.81-4.94A.53.53,0,0,0,439.76,103.82Z" transform="translate(-350.99 -35.19)" style="fill:#2a4721"/></g></g><g id="Group_132" data-name="Group 132"><circle id="Ellipse_22" data-name="Ellipse 22" cx="122.55" cy="91.8" r="24.64" style="fill:#cd2027"/><path id="Path_107" data-name="Path 107" d="M460.49,112.55s4-.31,2.44,1.9-4.45,8.52-3.15,14.77c1.21,5.85-.2,10.23-3.09,6.73s-4.43-12.88-2.75-17.76A8.79,8.79,0,0,1,460.49,112.55Z" transform="translate(-350.99 -35.19)" style="fill:#e83326"/><path id="Path_108" data-name="Path 108" d="M467.14,117.32s4.23,2.12,11.15.84-1.52,2.56-4,2.64-6-.29-8.26-3.17C464.82,116,467.14,117.32,467.14,117.32Z" transform="translate(-350.99 -35.19)" style="fill:#e83326"/><path id="Path_109" data-name="Path 109" d="M482.63,105s15.76,8,14.33,22.45-13.85,19.42-18,19.74.16-2.54,4.78-8.59,7.15-18.63,4-24.36a27.57,27.57,0,0,0-8.1-8.92s-.88-.6-.12-1.06S482.63,105,482.63,105Z" transform="translate(-350.99 -35.19)" style="fill:#b01f24"/><g id="Group_131" data-name="Group 131"><path id="Path_110" data-name="Path 110" d="M460.21,114.93a15.82,15.82,0,0,1,10.84-3.47c6.55.41,7.81,1.58,7.81,1.58s7.23,3.25,8.94,4.88c0,0-3.57-5.11-7.31-6.37,0,0-1.94-.63-.86-1.31a37.59,37.59,0,0,1,15.76-4.2,22.82,22.82,0,0,0-16,2s-2.17,1.13-1.85.09,2.4-6.41,2.48-7.36a1.23,1.23,0,0,0-1.17-.77l-3.61,6.14s.86-9.85-7.09-15.73c0,0,5.35,10.18,5,16.54,0,0-.24,1.59-1.25.71s-9.12-7.11-13.75-6.47c0,0,12.17,7.27,12.75,8.09s-.62.76-.62.76S462.48,109.26,460.21,114.93Z" transform="translate(-350.99 -35.19)" style="fill:#37773a"/><path id="Path_111" data-name="Path 111" d="M479.6,100.54l-2.78,7.13a1.58,1.58,0,0,1-1.67-.75s-.08,1.71,2,1.47l2.73-7.46A.83.83,0,0,0,479.6,100.54Z" transform="translate(-350.99 -35.19)" style="fill:#2a4721"/></g></g><g id="Group_134" data-name="Group 134"><circle id="Ellipse_23" data-name="Ellipse 23" cx="159.79" cy="86.14" r="16.32" style="fill:#cd2027"/><path id="Path_112" data-name="Path 112" d="M502.14,111.77s2.68-.2,1.62,1.26a13.79,13.79,0,0,0-2.09,9.78c.8,3.87-.13,6.77-2.05,4.45s-2.93-8.53-1.82-11.76A5.82,5.82,0,0,1,502.14,111.77Z" transform="translate(-350.99 -35.19)" style="fill:#e83326"/><path id="Path_113" data-name="Path 113" d="M506.54,114.93a12.53,12.53,0,0,0,7.39.55c4.59-.84-1,1.7-2.62,1.75s-4-.19-5.47-2.1C505,114.05,506.54,114.93,506.54,114.93Z" transform="translate(-350.99 -35.19)" style="fill:#e83326"/><path id="Path_114" data-name="Path 114" d="M516.8,106.76s10.44,5.27,9.49,14.86a14.43,14.43,0,0,1-11.91,13.07c-2.75.21.1-1.69,3.16-5.69s4.73-12.34,2.62-16.13a18.14,18.14,0,0,0-5.36-5.9s-.59-.4-.08-.71S516.8,106.76,516.8,106.76Z" transform="translate(-350.99 -35.19)" style="fill:#b01f24"/><g id="Group_133" data-name="Group 133"><path id="Path_115" data-name="Path 115" d="M502,113.35a10.42,10.42,0,0,1,7.17-2.31c4.34.27,5.17,1,5.17,1s4.79,2.15,5.92,3.23c0,0-2.36-3.38-4.84-4.22,0,0-1.29-.42-.57-.86a24.9,24.9,0,0,1,10.44-2.78,15.09,15.09,0,0,0-10.59,1.31s-1.43.75-1.22.06,1.58-4.24,1.64-4.87a.83.83,0,0,0-.78-.51l-2.39,4.07s.58-6.52-4.69-10.41c0,0,3.54,6.74,3.29,11,0,0-.16,1-.83.47s-6-4.71-9.1-4.29c0,0,8.05,4.82,8.44,5.36s-.41.5-.41.5S503.46,109.59,502,113.35Z" transform="translate(-350.99 -35.19)" style="fill:#37773a"/><path id="Path_116" data-name="Path 116" d="M514.79,103.82,513,108.54a1.06,1.06,0,0,1-1.1-.5s-.05,1.13,1.32,1l1.81-4.93A.46.46,0,0,0,514.79,103.82Z" transform="translate(-350.99 -35.19)" style="fill:#2a4721"/></g></g></g><g id="Group_137" data-name="Group 137"><circle id="Ellipse_24" data-name="Ellipse 24" cx="57.86" cy="63.87" r="16.32" style="fill:#cd2027"/><path id="Path_117" data-name="Path 117" d="M400.21,89.5s2.67-.2,1.61,1.26a13.84,13.84,0,0,0-2.09,9.78c.81,3.87-.13,6.78-2.05,4.46s-2.92-8.53-1.81-11.76A5.83,5.83,0,0,1,400.21,89.5Z" transform="translate(-350.99 -35.19)" style="fill:#e83326"/><path id="Path_118" data-name="Path 118" d="M404.61,92.66a12.55,12.55,0,0,0,7.38.56c4.59-.85-1,1.69-2.61,1.75s-4-.2-5.47-2.1C403.08,91.79,404.61,92.66,404.61,92.66Z" transform="translate(-350.99 -35.19)" style="fill:#e83326"/><path id="Path_119" data-name="Path 119" d="M414.87,84.49s10.43,5.27,9.49,14.86a14.44,14.44,0,0,1-11.92,13.07c-2.74.21.11-1.68,3.17-5.69s4.73-12.33,2.62-16.13a18.24,18.24,0,0,0-5.36-5.9s-.59-.4-.09-.7S414.87,84.49,414.87,84.49Z" transform="translate(-350.99 -35.19)" style="fill:#b01f24"/><g id="Group_136" data-name="Group 136"><path id="Path_120" data-name="Path 120" d="M400,91.08a10.42,10.42,0,0,1,7.18-2.3c4.33.27,5.17,1,5.17,1s4.78,2.16,5.92,3.23c0,0-2.36-3.38-4.85-4.21,0,0-1.28-.42-.56-.87a24.82,24.82,0,0,1,10.43-2.78,15.12,15.12,0,0,0-10.58,1.32s-1.44.74-1.23.06,1.59-4.25,1.65-4.88a.82.82,0,0,0-.78-.5L410,85.25s.57-6.52-4.7-10.41c0,0,3.55,6.74,3.29,11,0,0-.16,1-.83.47s-6-4.71-9.1-4.28c0,0,8.06,4.81,8.44,5.36s-.4.49-.4.49S401.52,87.32,400,91.08Z" transform="translate(-350.99 -35.19)" style="fill:#37773a"/><path id="Path_121" data-name="Path 121" d="M412.86,81.55,411,86.27a1,1,0,0,1-1.1-.5s-.06,1.13,1.32,1l1.81-4.94A.7.7,0,0,0,412.86,81.55Z" transform="translate(-350.99 -35.19)" style="fill:#2a4721"/></g></g><g id="Group_139" data-name="Group 139"><circle id="Ellipse_25" data-name="Ellipse 25" cx="87.33" cy="63.87" r="16.32" style="fill:#cd2027"/><path id="Path_122" data-name="Path 122" d="M429.68,89.5s2.68-.2,1.62,1.26a13.79,13.79,0,0,0-2.09,9.78c.8,3.87-.13,6.78-2,4.46s-2.93-8.53-1.82-11.76A5.83,5.83,0,0,1,429.68,89.5Z" transform="translate(-350.99 -35.19)" style="fill:#e83326"/><path id="Path_123" data-name="Path 123" d="M434.08,92.66a12.57,12.57,0,0,0,7.39.56c4.58-.85-1,1.69-2.62,1.75s-4-.2-5.47-2.1C432.55,91.79,434.08,92.66,434.08,92.66Z" transform="translate(-350.99 -35.19)" style="fill:#e83326"/><path id="Path_124" data-name="Path 124" d="M444.34,84.49s10.44,5.27,9.49,14.86a14.44,14.44,0,0,1-11.92,13.07c-2.74.21.11-1.68,3.17-5.69s4.73-12.33,2.62-16.13a18.24,18.24,0,0,0-5.36-5.9s-.59-.4-.08-.7S444.34,84.49,444.34,84.49Z" transform="translate(-350.99 -35.19)" style="fill:#b01f24"/><g id="Group_138" data-name="Group 138"><path id="Path_125" data-name="Path 125" d="M429.49,91.08a10.44,10.44,0,0,1,7.18-2.3c4.34.27,5.17,1,5.17,1s4.79,2.16,5.92,3.23c0,0-2.36-3.38-4.84-4.21,0,0-1.29-.42-.57-.87a24.82,24.82,0,0,1,10.43-2.78,15.12,15.12,0,0,0-10.58,1.32s-1.44.74-1.23.06,1.59-4.25,1.65-4.88a.82.82,0,0,0-.78-.5l-2.39,4.06s.57-6.52-4.7-10.41c0,0,3.55,6.74,3.29,11,0,0-.15,1-.82.47s-6-4.71-9.11-4.28c0,0,8.06,4.81,8.45,5.36s-.41.49-.41.49S431,87.32,429.49,91.08Z" transform="translate(-350.99 -35.19)" style="fill:#37773a"/><path id="Path_126" data-name="Path 126" d="M442.33,81.55l-1.84,4.72a1,1,0,0,1-1.1-.5s-.05,1.13,1.32,1l1.81-4.94A.61.61,0,0,0,442.33,81.55Z" transform="translate(-350.99 -35.19)" style="fill:#2a4721"/></g></g><g id="Group_141" data-name="Group 141"><circle id="Ellipse_26" data-name="Ellipse 26" cx="122.62" cy="60.88" r="20.72" style="fill:#cd2027"/><path id="Path_127" data-name="Path 127" d="M462.63,83.93s3.4-.26,2.06,1.6A17.49,17.49,0,0,0,462,98c1,4.92-.16,8.6-2.6,5.66s-3.72-10.84-2.3-14.94A7.38,7.38,0,0,1,462.63,83.93Z" transform="translate(-350.99 -35.19)" style="fill:#e83326"/><path id="Path_128" data-name="Path 128" d="M468.22,87.94s3.56,1.78,9.38.71-1.28,2.15-3.32,2.22-5.08-.25-6.95-2.67C466.28,86.84,468.22,87.94,468.22,87.94Z" transform="translate(-350.99 -35.19)" style="fill:#e83326"/><path id="Path_129" data-name="Path 129" d="M481.25,77.56s13.26,6.7,12.05,18.88-11.65,16.33-15.13,16.61.14-2.15,4-7.23,6-15.67,3.33-20.49a23.29,23.29,0,0,0-6.81-7.5s-.75-.5-.1-.89S481.25,77.56,481.25,77.56Z" transform="translate(-350.99 -35.19)" style="fill:#b01f24"/><g id="Group_140" data-name="Group 140"><path id="Path_130" data-name="Path 130" d="M462.4,85.94A13.26,13.26,0,0,1,471.51,83c5.51.34,6.57,1.33,6.57,1.33s6.08,2.73,7.52,4.1c0,0-3-4.29-6.15-5.35,0,0-1.64-.54-.72-1.1A31.59,31.59,0,0,1,492,78.45a19.22,19.22,0,0,0-13.44,1.67s-1.83.95-1.56.08,2-5.39,2.09-6.19a1,1,0,0,0-1-.64l-3,5.16s.73-8.29-6-13.23c0,0,4.5,8.57,4.18,13.91,0,0-.21,1.34-1.05.6s-7.67-6-11.57-5.44c0,0,10.24,6.11,10.73,6.81s-.52.63-.52.63S464.3,81.16,462.4,85.94Z" transform="translate(-350.99 -35.19)" style="fill:#37773a"/><path id="Path_131" data-name="Path 131" d="M478.7,73.83l-2.33,6A1.35,1.35,0,0,1,475,79.2s-.06,1.43,1.68,1.23l2.3-6.27A.78.78,0,0,0,478.7,73.83Z" transform="translate(-350.99 -35.19)" style="fill:#2a4721"/></g></g><g id="Group_143" data-name="Group 143"><circle id="Ellipse_27" data-name="Ellipse 27" cx="158.12" cy="63.87" r="16.32" style="fill:#cd2027"/><path id="Path_132" data-name="Path 132" d="M500.47,89.5s2.67-.2,1.61,1.26a13.79,13.79,0,0,0-2.09,9.78c.8,3.87-.13,6.78-2.05,4.46s-2.92-8.53-1.81-11.76A5.81,5.81,0,0,1,500.47,89.5Z" transform="translate(-350.99 -35.19)" style="fill:#e83326"/><path id="Path_133" data-name="Path 133" d="M504.87,92.66a12.55,12.55,0,0,0,7.38.56c4.59-.85-1,1.69-2.61,1.75s-4-.2-5.47-2.1C503.33,91.79,504.87,92.66,504.87,92.66Z" transform="translate(-350.99 -35.19)" style="fill:#e83326"/><path id="Path_134" data-name="Path 134" d="M515.12,84.49s10.44,5.27,9.49,14.86a14.43,14.43,0,0,1-11.91,13.07c-2.74.21.11-1.68,3.16-5.69s4.74-12.33,2.63-16.13a18.27,18.27,0,0,0-5.37-5.9s-.58-.4-.08-.7S515.12,84.49,515.12,84.49Z" transform="translate(-350.99 -35.19)" style="fill:#b01f24"/><g id="Group_142" data-name="Group 142"><path id="Path_135" data-name="Path 135" d="M500.28,91.08a10.42,10.42,0,0,1,7.18-2.3c4.33.27,5.17,1,5.17,1s4.78,2.16,5.92,3.23c0,0-2.36-3.38-4.85-4.21,0,0-1.28-.42-.56-.87a24.82,24.82,0,0,1,10.43-2.78A15.12,15.12,0,0,0,513,86.51s-1.44.74-1.23.06,1.58-4.25,1.64-4.88a.8.8,0,0,0-.77-.5l-2.39,4.06s.57-6.52-4.7-10.41c0,0,3.54,6.74,3.29,11,0,0-.16,1-.83.47s-6-4.71-9.1-4.28c0,0,8.06,4.81,8.44,5.36s-.4.49-.4.49S501.78,87.32,500.28,91.08Z" transform="translate(-350.99 -35.19)" style="fill:#37773a"/><path id="Path_136" data-name="Path 136" d="M513.12,81.55l-1.84,4.72a1,1,0,0,1-1.11-.5s-.05,1.13,1.33,1l1.81-4.94A.7.7,0,0,0,513.12,81.55Z" transform="translate(-350.99 -35.19)" style="fill:#2a4721"/></g></g><g id="Group_144" data-name="Group 144"><rect id="Rectangle_143" data-name="Rectangle 143" x="155.27" y="79.95" width="23.57" height="25.93" rx="1.36" style="fill:#845321"/><rect id="Rectangle_144" data-name="Rectangle 144" x="39.09" y="79.53" width="23.57" height="25.93" rx="1.36" style="fill:#845321"/><rect id="Rectangle_145" data-name="Rectangle 145" x="35.1" y="66.62" width="147.52" height="24.22" rx="1.36" style="fill:#b77934"/><rect id="Rectangle_146" data-name="Rectangle 146" x="35.1" y="95.61" width="147.52" height="24.22" rx="1.36" style="fill:#b77934"/></g></g><g id="Group_148" data-name="Group 148"><path id="Path_137" data-name="Path 137" d="M444.17,104.85S430,109,425.25,125.94,427,155.71,427,155.71s3.35,16-3.74,24.25-5,20.56,5.71,21.09,11.63,5.52,11.63,5.52h54s15.38-25.63-3.35-37.65c0,0-10.05-7.3-9.26-13.61a16.73,16.73,0,0,1,4.33-9.65s6.11-11.44,0-26.42S459.55,90.26,444.17,104.85Z" transform="translate(-350.99 -35.19)"/><g id="Group_146" data-name="Group 146"><rect id="Rectangle_147" data-name="Rectangle 147" x="125.93" y="153.05" width="11.72" height="18.34" style="fill:#f3b07f"/><rect id="Rectangle_148" data-name="Rectangle 148" x="76.78" y="153.05" width="11.72" height="18.34" style="fill:#f3b07f"/></g><path id="Path_138" data-name="Path 138" d="M433.37,179.55l15.75-5.6h16.7l17.82,5.94-7.32,21.69L475,206.66H440.86Z" transform="translate(-350.99 -35.19)" style="fill:#333e8f"/><path id="Path_139" data-name="Path 139" d="M424.93,190.82s4.58-15.15,13.43-11,1.32,21.78,1.32,21.78S425.73,201.24,424.93,190.82Z" transform="translate(-350.99 -35.19)" style="fill:#28316d"/><path id="Path_140" data-name="Path 140" d="M490.09,191.07s-3.87-15.41-12.48-11.27-1.29,21.77-1.29,21.77S488,198.3,490.09,191.07Z" transform="translate(-350.99 -35.19)" style="fill:#28316d"/><path id="Path_141" data-name="Path 141" d="M451.21,173l-2.51.28s.29,7.45,8.59,7.45,9-7.45,9-7.45l-3-.43Z" transform="translate(-350.99 -35.19)" style="fill:#28316d"/><path id="Path_142" data-name="Path 142" d="M451.46,162.91v10.88s-.1,4.61,6,4.61,6.28-4.9,6.28-4.9V162.22H451.36Z" transform="translate(-350.99 -35.19)" style="fill:#f6b07d"/><g id="Group_147" data-name="Group 147"><path id="Path_143" data-name="Path 143" d="M480,143.34l3.1-7.68s4.87,2.22,2.51,8-7.38,3.69-7.38,3.69Z" transform="translate(-350.99 -35.19)" style="fill:#f6b07d"/><path id="Path_144" data-name="Path 144" d="M434.87,143.34l-3.1-7.68s-4.87,2.22-2.51,8,7.38,3.69,7.38,3.69Z" transform="translate(-350.99 -35.19)" style="fill:#f6b07d"/></g><path id="Path_145" data-name="Path 145" d="M433.79,138.66s2.73,25.44,23.56,25.44c22.43,0,23.61-24.65,23.61-24.65s2-33.25-22.07-33.39C431.23,105.88,433.79,138.66,433.79,138.66Z" transform="translate(-350.99 -35.19)" style="fill:#f6b07d"/><ellipse id="Ellipse_28" data-name="Ellipse 28" cx="97.56" cy="100.91" rx="2.04" ry="3.13"/><ellipse id="Ellipse_29" data-name="Ellipse 29" cx="116.35" cy="100.81" rx="2.04" ry="3.13"/><path id="Path_146" data-name="Path 146" d="M463.19,127.6l6.75,1s3.92.4,5.11,2.81l-12-1.79Z" transform="translate(-350.99 -35.19)"/><path id="Path_147" data-name="Path 147" d="M452.58,127.41l-6.74,1.11s-3.91.47-5.06,2.9l12-2Z" transform="translate(-350.99 -35.19)"/><path id="Path_148" data-name="Path 148" d="M453.19,150.44h11.2S459.28,144.48,453.19,150.44Z" transform="translate(-350.99 -35.19)" style="fill:#fff"/><path id="Path_149" data-name="Path 149" d="M434.25,141.94s-1.51-10.08,3.91-14.75,11-9.33,7.57-14.87c0,0,1.51,8.82,21.81,4.41,0,0,13.86,12.36,12.1,27.48,0,0,4-8.19,4-13.61s-8.95-26.48-26.22-25.34S430.09,118.24,434.25,141.94Z" transform="translate(-350.99 -35.19)"/></g></g></svg>