<svg id="Layer_9" data-name="Layer 9" xmlns="http://www.w3.org/2000/svg" viewBox="0 0 214.95 174.65"><g id="Group_149" data-name="Group 149"><g id="Group_122" data-name="Group 122"><rect id="Rectangle_123" data-name="Rectangle 123" x="26.91" y="14.61" width="2.73" height="83.73" style="fill:#a16628"/><rect id="Rectangle_124" data-name="Rectangle 124" x="11.96" y="19.83" width="32.44" height="18.81" style="fill:#d4995f"/><g id="Group_113" data-name="Group 113"><rect id="Rectangle_125" data-name="Rectangle 125" x="135.2" y="13.48" width="3.56" height="102.6" style="fill:#4a7b5d"/><path id="Path_69" data-name="Path 69" d="M164.53,48.71s-2.7-17,16.16-16.69C180.69,32,183.23,49.51,164.53,48.71Z" transform="translate(-29.31 -32.02)" style="fill:#479456"/><path id="Path_70" data-name="Path 70" d="M167.87,80.56s2.7-17-16.16-16.7C151.71,63.86,149.17,81.36,167.87,80.56Z" transform="translate(-29.31 -32.02)" style="fill:#479456"/><path id="Path_71" data-name="Path 71" d="M164.54,97.69s-2.7-17,16.16-16.69C180.7,81,183.23,98.5,164.54,97.69Z" transform="translate(-29.31 -32.02)" style="fill:#479456"/><path id="Path_72" data-name="Path 72" d="M167.89,139.75s2.7-17-16.16-16.7C151.73,123.05,149.2,140.55,167.89,139.75Z" transform="translate(-29.31 -32.02)" style="fill:#479456"/></g><g id="Group_114" data-name="Group 114"><rect id="Rectangle_126" data-name="Rectangle 126" x="94.63" y="13.48" width="3.56" height="102.6" style="fill:#4a7b5d"/><path id="Path_73" data-name="Path 73" d="M124,48.71s-2.71-17,16.15-16.69C140.11,32,142.65,49.51,124,48.71Z" transform="translate(-29.31 -32.02)" style="fill:#479456"/><path id="Path_74" data-name="Path 74" d="M127.29,80.56s2.71-17-16.15-16.7C111.14,63.86,108.6,81.36,127.29,80.56Z" transform="translate(-29.31 -32.02)" style="fill:#479456"/><path id="Path_75" data-name="Path 75" d="M124,97.69s-2.71-17,16.15-16.69C140.12,81,142.66,98.5,124,97.69Z" transform="translate(-29.31 -32.02)" style="fill:#479456"/><path id="Path_76" data-name="Path 76" d="M127.32,139.75s2.7-17-16.16-16.7C111.16,123.05,108.62,140.55,127.32,139.75Z" transform="translate(-29.31 -32.02)" style="fill:#479456"/></g><g id="Group_115" data-name="Group 115"><rect id="Rectangle_127" data-name="Rectangle 127" x="53.07" y="13.48" width="3.56" height="102.6" style="fill:#4a7b5d"/><path id="Path_77" data-name="Path 77" d="M82.4,48.71S79.7,31.71,98.56,32C98.56,32,101.09,49.51,82.4,48.71Z" transform="translate(-29.31 -32.02)" style="fill:#479456"/><path id="Path_78" data-name="Path 78" d="M85.74,80.56s2.7-17-16.16-16.7C69.58,63.86,67,81.36,85.74,80.56Z" transform="translate(-29.31 -32.02)" style="fill:#479456"/><path id="Path_79" data-name="Path 79" d="M82.41,97.69S79.71,80.7,98.57,81C98.57,81,101.1,98.5,82.41,97.69Z" transform="translate(-29.31 -32.02)" style="fill:#479456"/><path id="Path_80" data-name="Path 80" d="M85.76,139.75s2.7-17-16.16-16.7C69.6,123.05,67.07,140.55,85.76,139.75Z" transform="translate(-29.31 -32.02)" style="fill:#479456"/></g><g id="Group_116" data-name="Group 116"><rect id="Rectangle_128" data-name="Rectangle 128" x="107.05" y="71.96" width="3.56" height="41.79" style="fill:#4a7b5d"/><path id="Path_81" data-name="Path 81" d="M138.15,108.49s2.7-17-16.16-16.69C122,91.8,119.46,109.29,138.15,108.49Z" transform="translate(-29.31 -32.02)" style="fill:#479456"/><path id="Path_82" data-name="Path 82" d="M138.07,108.49s-2.7-17,16.16-16.69C154.23,91.8,156.77,109.29,138.07,108.49Z" transform="translate(-29.31 -32.02)" style="fill:#479456"/><path id="Path_83" data-name="Path 83" d="M139.74,137.41s2.7-17-16.16-16.69C123.58,120.72,121,138.22,139.74,137.41Z" transform="translate(-29.31 -32.02)" style="fill:#479456"/></g><g id="Group_117" data-name="Group 117"><rect id="Rectangle_129" data-name="Rectangle 129" x="64.62" y="71.96" width="3.56" height="41.79" style="fill:#4a7b5d"/><path id="Path_84" data-name="Path 84" d="M95.72,108.49s2.7-17-16.16-16.69C79.56,91.8,77,109.29,95.72,108.49Z" transform="translate(-29.31 -32.02)" style="fill:#479456"/><path id="Path_85" data-name="Path 85" d="M95.64,108.49s-2.7-17,16.16-16.69C111.8,91.8,114.33,109.29,95.64,108.49Z" transform="translate(-29.31 -32.02)" style="fill:#479456"/><path id="Path_86" data-name="Path 86" d="M97.31,137.41s2.7-17-16.16-16.69C81.15,120.72,78.61,138.22,97.31,137.41Z" transform="translate(-29.31 -32.02)" style="fill:#479456"/></g><g id="Group_118" data-name="Group 118"><rect id="Rectangle_130" data-name="Rectangle 130" x="15.41" y="71.96" width="3.56" height="41.79" style="fill:#4a7b5d"/><path id="Path_87" data-name="Path 87" d="M46.51,108.49s2.7-17-16.16-16.69C30.35,91.8,27.81,109.29,46.51,108.49Z" transform="translate(-29.31 -32.02)" style="fill:#479456"/><path id="Path_88" data-name="Path 88" d="M46.43,108.49s-2.7-17,16.16-16.69C62.59,91.8,65.12,109.29,46.43,108.49Z" transform="translate(-29.31 -32.02)" style="fill:#479456"/><path id="Path_89" data-name="Path 89" d="M48.09,137.41s2.71-17-16.15-16.69C31.94,120.72,29.4,138.22,48.09,137.41Z" transform="translate(-29.31 -32.02)" style="fill:#479456"/></g><g id="Group_119" data-name="Group 119"><path id="Path_90" data-name="Path 90" d="M36.46,139.22h143.9l-5,29.14s.06,3.49-4,3.45c-2.27,0-36.27,0-36.27,0s-1,0-2.42-4.61l-.69-2.68-.72,2.74s-1.07,4.55-2.46,4.55H92.09s-2.39.45-3.18-4.56l-.81-3.05-.79,3.05s-.74,4.57-3.21,4.57H45.47s-1.56-.23-2.4-3.76S36.46,139.22,36.46,139.22Z" transform="translate(-29.31 -32.02)" style="fill:#a16628"/><rect id="Rectangle_131" data-name="Rectangle 131" x="3.4" y="97.05" width="152.04" height="10.54" rx="1.04" style="fill:#b77934"/></g><g id="Group_121" data-name="Group 121"><circle id="Ellipse_19" data-name="Ellipse 19" cx="28.36" cy="30.52" r="6.2" style="fill:#cd2027"/><path id="Path_91" data-name="Path 91" d="M54.39,58.9s1-.07.61.48a5.25,5.25,0,0,0-.79,3.72c.3,1.47-.05,2.57-.78,1.69a5.94,5.94,0,0,1-.69-4.47A2.21,2.21,0,0,1,54.39,58.9Z" transform="translate(-29.31 -32.02)" style="fill:#e83326"/><path id="Path_92" data-name="Path 92" d="M56.06,60.1a4.74,4.74,0,0,0,2.81.22c1.74-.32-.39.64-1,.66a2.41,2.41,0,0,1-2.08-.8C55.48,59.77,56.06,60.1,56.06,60.1Z" transform="translate(-29.31 -32.02)" style="fill:#e83326"/><path id="Path_93" data-name="Path 93" d="M60,57s4,2,3.6,5.64a5.48,5.48,0,0,1-4.52,5c-1,.08,0-.64,1.2-2.16s1.8-4.69,1-6.13a7.06,7.06,0,0,0-2-2.24s-.23-.15,0-.27S60,57,60,57Z" transform="translate(-29.31 -32.02)" style="fill:#b01f24"/><g id="Group_120" data-name="Group 120"><path id="Path_94" data-name="Path 94" d="M54.32,59.5A4,4,0,0,1,57,58.63c1.65.1,2,.39,2,.39a14,14,0,0,1,2.25,1.23,4.9,4.9,0,0,0-1.84-1.6s-.49-.16-.22-.33a9.51,9.51,0,0,1,4-1.06,5.77,5.77,0,0,0-4,.5s-.55.29-.47,0,.6-1.61.63-1.85a.32.32,0,0,0-.3-.19l-.91,1.54a4.72,4.72,0,0,0-1.78-4s1.35,2.56,1.25,4.16c0,0-.06.4-.31.18S55,55.88,53.8,56c0,0,3.06,1.83,3.2,2s-.15.19-.15.19S54.89,58.07,54.32,59.5Z" transform="translate(-29.31 -32.02)" style="fill:#37773a"/><path id="Path_95" data-name="Path 95" d="M59.2,55.88l-.7,1.8a.4.4,0,0,1-.42-.19s0,.42.5.37L59.27,56A.36.36,0,0,0,59.2,55.88Z" transform="translate(-29.31 -32.02)" style="fill:#2a4721"/></g></g><path id="Rectangle_132" data-name="Rectangle 132" d="M34.87,129.07H183.36a5.56,5.56,0,0,1,5.56,5.56h0a5.56,5.56,0,0,1-5.56,5.56H34.87a5.56,5.56,0,0,1-5.56-5.56h0A5.56,5.56,0,0,1,34.87,129.07Z" transform="translate(-29.31 -32.02)" style="fill:#b77934"/></g></g><g id="Group_173" data-name="Group 173"><path id="Path_194" data-name="Path 194" d="M190.56,100.07a17.44,17.44,0,0,0-12.83,11.26c-3.6,9.86-1.88,13.61-1.88,13.61s1.23,4.13-.93,6.57.31,6.57.31,6.57,2,3.29.62,5.63a7.35,7.35,0,0,0,.32,7.35A4.48,4.48,0,0,1,176,157c-2.69,2.29-1.52,5.86-.74,8.64a9.34,9.34,0,0,1-.21,5.16s-2.43,6.21,2.63,7.27,55.29.21,55.29.21,7.21-.69,7.47-6.74c.21-4.72.22-6.53.22-6.53s4.95-4.74,1.16-8.63.1-7.48.1-7.48,3.9-7-.74-9.69-1.58-8.32-1.58-8.32,2.11-7.58-3.26-9.69c0,0,1.58-10.21-6.42-16.63S207.21,87.45,190.56,100.07Z" transform="translate(-29.31 -32.02)" style="fill:#46250f"/><rect id="Rectangle_173" data-name="Rectangle 173" x="161.82" y="116.44" width="33.71" height="30.66" style="fill:#311c0e"/><g id="Group_171" data-name="Group 171"><rect id="Rectangle_174" data-name="Rectangle 174" x="199.18" y="154.98" width="12.08" height="18.89" style="fill:#f3b07f"/><rect id="Rectangle_175" data-name="Rectangle 175" x="148.54" y="154.98" width="12.08" height="18.89" style="fill:#f3b07f"/></g><path id="Path_195" data-name="Path 195" d="M183.62,178l16.23-5.76h17.21l18.36,6.12-7.54,22.34L226.55,206H191.33Z" transform="translate(-29.31 -32.02)" style="fill:#fdeb01"/><path id="Path_196" data-name="Path 196" d="M172.58,200.67s5.06-27,15.5-22.66,2.5,26.67,2.5,26.67S183.19,205.52,172.58,200.67Z" transform="translate(-29.31 -32.02)" style="fill:#7a6529"/><path id="Path_197" data-name="Path 197" d="M244.26,199.9s-2.15-24.61-13.82-22.2c-9.64,2-2.41,26.77-2.41,26.77S239.82,206.75,244.26,199.9Z" transform="translate(-29.31 -32.02)" style="fill:#7a6529"/><path id="Path_198" data-name="Path 198" d="M202.27,171.32l-2.77.92s.22,7,8.77,7,9.2-6.87,9.2-6.87l-3-1.25Z" transform="translate(-29.31 -32.02)" style="fill:#7d1418"/><path id="Path_199" data-name="Path 199" d="M202.26,160.89V172.1s-.1,4.75,6.17,4.75,6.46-5,6.46-5V160.18H202.16Z" transform="translate(-29.31 -32.02)" style="fill:#f6b07d"/><g id="Group_172" data-name="Group 172"><path id="Path_200" data-name="Path 200" d="M185.16,140.72,182,132.81s-5,2.28-2.58,8.21,7.6,3.8,7.6,3.8Z" transform="translate(-29.31 -32.02)" style="fill:#f6b07d"/></g><path id="Path_201" data-name="Path 201" d="M184.05,135.9s2.82,26.21,24.28,26.21c23.11,0,24.33-25.4,24.33-25.4s2.06-34.26-22.74-34.41C181.42,102.12,184.05,135.9,184.05,135.9Z" transform="translate(-29.31 -32.02)" style="fill:#f6b07d"/><ellipse id="Ellipse_33" data-name="Ellipse 33" cx="169.94" cy="101.24" rx="2.1" ry="3.23" style="fill:#4f2512"/><ellipse id="Ellipse_34" data-name="Ellipse 34" cx="189.31" cy="101.14" rx="2.1" ry="3.23" style="fill:#4f2512"/><path id="Path_202" data-name="Path 202" d="M214.12,125.42h7s4.05-.19,5.64,2.09H214.25Z" transform="translate(-29.31 -32.02)" style="fill:#592f14"/><path id="Path_203" data-name="Path 203" d="M203.67,125.33h-7s-4-.19-5.64,2.09h12.55Z" transform="translate(-29.31 -32.02)" style="fill:#592f14"/><path id="Path_204" data-name="Path 204" d="M204.05,148h11.53S208.93,153,204.05,148Z" transform="translate(-29.31 -32.02)" style="fill:#fff"/><path id="Path_205" data-name="Path 205" d="M202.25,161.43a34.65,34.65,0,0,0,12.63-.06v3s-12.56.25-12.56,5S202.25,161,202.25,161.43Z" transform="translate(-29.31 -32.02)" style="fill:#e38f5e"/><path id="Path_206" data-name="Path 206" d="M184.39,139s-1.07-10.74,3.7-15,10.38-9.31,8.95-13.84c0,0,5,13.4,18,13.84,16.45.56,12.89,8.72,12.89,8.72a12,12,0,0,0-1.32,5.61c.08,1.86,2.76,7,5,8.06,0,0,10.79-32.32-6.15-42.35s-30.62-1.61-33.48.42S178.66,130.32,184.39,139Z" transform="translate(-29.31 -32.02)" style="fill:#46250f"/></g><g id="Group_177" data-name="Group 177"><rect id="Rectangle_176" data-name="Rectangle 176" x="115.48" y="107.93" width="36.67" height="66.72" rx="8.55" style="fill:#425355"/><rect id="Rectangle_177" data-name="Rectangle 177" x="117.19" y="109.35" width="33.45" height="63.52" rx="8.55" style="fill:#fff"/><rect id="Rectangle_178" data-name="Rectangle 178" x="123.69" y="107.94" width="19.59" height="3.94" rx="1.97" style="fill:#425355"/><g id="Group_174" data-name="Group 174"><rect id="Rectangle_179" data-name="Rectangle 179" x="119.62" y="124.16" width="29.24" height="12.37" rx="4.27" style="fill:none;stroke:#455d5d;stroke-miterlimit:10;opacity:0.5;isolation:isolate"/><path id="Rectangle_180" data-name="Rectangle 180" d="M155.94,158.67h0a3.76,3.76,0,0,1,3.76,3.77v.22a3.76,3.76,0,0,1-3.76,3.76h0a3.76,3.76,0,0,1-3.76-3.76v-.22A3.76,3.76,0,0,1,155.94,158.67Z" transform="translate(-29.31 -32.02)" style="fill:#455d5d;opacity:0.5;isolation:isolate"/><line id="Line_17" data-name="Line 17" x1="133.09" y1="127.06" x2="145.72" y2="127.06" style="fill:none;stroke:#455d5d;stroke-miterlimit:10;stroke-width:2px;opacity:0.5;isolation:isolate"/><line id="Line_18" data-name="Line 18" x1="133.09" y1="129.82" x2="145.72" y2="129.82" style="fill:none;stroke:#455d5d;stroke-miterlimit:10;stroke-width:2px;opacity:0.5;isolation:isolate"/><line id="Line_19" data-name="Line 19" x1="133.09" y1="132.52" x2="145.72" y2="132.52" style="fill:none;stroke:#455d5d;stroke-miterlimit:10;stroke-width:2px;opacity:0.5;isolation:isolate"/></g><g id="Group_175" data-name="Group 175"><rect id="Rectangle_181" data-name="Rectangle 181" x="119.62" y="140" width="29.24" height="12.37" rx="4.27" style="fill:none;stroke:#455d5d;stroke-miterlimit:10;opacity:0.5;isolation:isolate"/><path id="Rectangle_182" data-name="Rectangle 182" d="M155.94,174.52h0a3.76,3.76,0,0,1,3.76,3.76v.22a3.76,3.76,0,0,1-3.76,3.77h0a3.76,3.76,0,0,1-3.76-3.77v-.22A3.76,3.76,0,0,1,155.94,174.52Z" transform="translate(-29.31 -32.02)" style="fill:#455d5d;opacity:0.5;isolation:isolate"/><line id="Line_20" data-name="Line 20" x1="133.09" y1="142.9" x2="145.72" y2="142.9" style="fill:none;stroke:#455d5d;stroke-miterlimit:10;stroke-width:2px;opacity:0.5;isolation:isolate"/><line id="Line_21" data-name="Line 21" x1="133.09" y1="145.66" x2="145.72" y2="145.66" style="fill:none;stroke:#455d5d;stroke-miterlimit:10;stroke-width:2px;opacity:0.5;isolation:isolate"/><line id="Line_22" data-name="Line 22" x1="133.09" y1="148.36" x2="145.72" y2="148.36" style="fill:none;stroke:#455d5d;stroke-miterlimit:10;stroke-width:2px;opacity:0.5;isolation:isolate"/></g><g id="Group_176" data-name="Group 176"><rect id="Rectangle_183" data-name="Rectangle 183" x="119.62" y="156.16" width="29.24" height="12.37" rx="4.27" style="fill:none;stroke:#455d5d;stroke-miterlimit:10;opacity:0.5;isolation:isolate"/><path id="Rectangle_184" data-name="Rectangle 184" d="M155.94,190.67h0a3.76,3.76,0,0,1,3.76,3.77v.21a3.76,3.76,0,0,1-3.76,3.77h0a3.76,3.76,0,0,1-3.76-3.77v-.21A3.76,3.76,0,0,1,155.94,190.67Z" transform="translate(-29.31 -32.02)" style="fill:#455d5d;opacity:0.5;isolation:isolate"/><line id="Line_23" data-name="Line 23" x1="133.09" y1="159.06" x2="145.72" y2="159.06" style="fill:none;stroke:#455d5d;stroke-miterlimit:10;stroke-width:2px;opacity:0.5;isolation:isolate"/><line id="Line_24" data-name="Line 24" x1="133.09" y1="161.82" x2="145.72" y2="161.82" style="fill:none;stroke:#455d5d;stroke-miterlimit:10;stroke-width:2px;opacity:0.5;isolation:isolate"/><line id="Line_25" data-name="Line 25" x1="133.09" y1="164.52" x2="145.72" y2="164.52" style="fill:none;stroke:#455d5d;stroke-miterlimit:10;stroke-width:2px;opacity:0.5;isolation:isolate"/></g><path id="Rectangle_185" data-name="Rectangle 185" d="M153.07,145.54h21a4.13,4.13,0,0,1,4.13,4.13h0a4.13,4.13,0,0,1-4.13,4.13h-21a4.13,4.13,0,0,1-4.13-4.13h0A4.13,4.13,0,0,1,153.07,145.54Z" transform="translate(-29.31 -32.02)" style="fill:#455d5d;opacity:0.5;isolation:isolate"/></g></svg>