<svg id="Layer_9" data-name="Layer 9" xmlns="http://www.w3.org/2000/svg" viewBox="0 0 222.51 176.49"><rect id="Rectangle_188" data-name="Rectangle 188" x="25.31" y="130.47" width="177.43" height="30.27" style="fill:#2d1b12"/><g id="Group_190" data-name="Group 190"><rect id="Rectangle_189" data-name="Rectangle 189" x="41.98" y="16.76" width="3.96" height="96.04" style="fill:#a16628"/><rect id="Rectangle_190" data-name="Rectangle 190" x="20.32" y="22.74" width="47.01" height="21.58" style="fill:#d4995f"/><g id="Group_182" data-name="Group 182"><rect id="Rectangle_191" data-name="Rectangle 191" x="198.9" y="15.46" width="5.15" height="117.68" style="fill:#4a7b5d"/><path id="Path_207" data-name="Path 207" d="M392.07,611s-3.92-19.49,23.41-19.14C415.48,591.89,419.16,612,392.07,611Z" transform="translate(-193.14 -591.88)" style="fill:#479456"/><path id="Path_208" data-name="Path 208" d="M396.9,647.56s3.92-19.5-23.41-19.15C373.49,628.41,369.81,648.48,396.9,647.56Z" transform="translate(-193.14 -591.88)" style="fill:#479456"/><path id="Path_209" data-name="Path 209" d="M392.08,667.21s-3.92-19.49,23.41-19.14C415.49,648.07,419.17,668.13,392.08,667.21Z" transform="translate(-193.14 -591.88)" style="fill:#479456"/><path id="Path_210" data-name="Path 210" d="M396.94,715.45s3.91-19.5-23.42-19.15C373.52,696.3,369.85,716.36,396.94,715.45Z" transform="translate(-193.14 -591.88)" style="fill:#479456"/></g><g id="Group_183" data-name="Group 183"><rect id="Rectangle_192" data-name="Rectangle 192" x="140.1" y="15.46" width="5.15" height="117.68" style="fill:#4a7b5d"/><path id="Path_211" data-name="Path 211" d="M333.27,611s-3.91-19.49,23.41-19.14C356.68,591.89,360.36,612,333.27,611Z" transform="translate(-193.14 -591.88)" style="fill:#479456"/><path id="Path_212" data-name="Path 212" d="M338.11,647.56s3.91-19.5-23.41-19.15C314.7,628.41,311,648.48,338.11,647.56Z" transform="translate(-193.14 -591.88)" style="fill:#479456"/><path id="Path_213" data-name="Path 213" d="M333.29,667.21s-3.92-19.49,23.41-19.14C356.7,648.07,360.37,668.13,333.29,667.21Z" transform="translate(-193.14 -591.88)" style="fill:#479456"/><path id="Path_214" data-name="Path 214" d="M338.14,715.45s3.92-19.5-23.41-19.15C314.73,696.3,311.05,716.36,338.14,715.45Z" transform="translate(-193.14 -591.88)" style="fill:#479456"/></g><g id="Group_184" data-name="Group 184"><rect id="Rectangle_193" data-name="Rectangle 193" x="79.89" y="15.46" width="5.15" height="117.68" style="fill:#4a7b5d"/><path id="Path_215" data-name="Path 215" d="M273.06,611s-3.92-19.49,23.41-19.14C296.47,591.89,300.15,612,273.06,611Z" transform="translate(-193.14 -591.88)" style="fill:#479456"/><path id="Path_216" data-name="Path 216" d="M277.89,647.56s3.92-19.5-23.41-19.15C254.48,628.41,250.8,648.48,277.89,647.56Z" transform="translate(-193.14 -591.88)" style="fill:#479456"/><path id="Path_217" data-name="Path 217" d="M273.07,667.21s-3.92-19.49,23.41-19.14C296.48,648.07,300.16,668.13,273.07,667.21Z" transform="translate(-193.14 -591.88)" style="fill:#479456"/><path id="Path_218" data-name="Path 218" d="M277.93,715.45s3.91-19.5-23.42-19.15C254.51,696.3,250.84,716.36,277.93,715.45Z" transform="translate(-193.14 -591.88)" style="fill:#479456"/></g><g id="Group_185" data-name="Group 185"><rect id="Rectangle_194" data-name="Rectangle 194" x="158.1" y="82.54" width="5.15" height="47.93" style="fill:#4a7b5d"/><path id="Path_219" data-name="Path 219" d="M353.84,679.59s3.92-19.49-23.41-19.14C330.43,660.45,326.75,680.51,353.84,679.59Z" transform="translate(-193.14 -591.88)" style="fill:#479456"/><path id="Path_220" data-name="Path 220" d="M353.73,679.59s-3.92-19.49,23.41-19.14C377.14,660.45,380.81,680.51,353.73,679.59Z" transform="translate(-193.14 -591.88)" style="fill:#479456"/><path id="Path_221" data-name="Path 221" d="M356.14,712.77s3.92-19.49-23.41-19.14C332.73,693.63,329.05,713.69,356.14,712.77Z" transform="translate(-193.14 -591.88)" style="fill:#479456"/></g><g id="Group_186" data-name="Group 186"><rect id="Rectangle_195" data-name="Rectangle 195" x="96.62" y="82.54" width="5.15" height="47.93" style="fill:#4a7b5d"/><path id="Path_222" data-name="Path 222" d="M292.36,679.59s3.91-19.49-23.42-19.14C268.94,660.45,265.27,680.51,292.36,679.59Z" transform="translate(-193.14 -591.88)" style="fill:#479456"/><path id="Path_223" data-name="Path 223" d="M292.24,679.59s-3.91-19.49,23.41-19.14C315.65,660.45,319.33,680.51,292.24,679.59Z" transform="translate(-193.14 -591.88)" style="fill:#479456"/><path id="Path_224" data-name="Path 224" d="M294.66,712.77s3.91-19.49-23.42-19.14C271.25,693.63,267.57,713.69,294.66,712.77Z" transform="translate(-193.14 -591.88)" style="fill:#479456"/></g><g id="Group_187" data-name="Group 187"><rect id="Rectangle_196" data-name="Rectangle 196" x="25.31" y="82.54" width="5.15" height="47.93" style="fill:#4a7b5d"/><path id="Path_225" data-name="Path 225" d="M221.05,679.59s3.91-19.49-23.41-19.14C197.64,660.45,194,680.51,221.05,679.59Z" transform="translate(-193.14 -591.88)" style="fill:#479456"/><path id="Path_226" data-name="Path 226" d="M220.93,679.59S217,660.1,244.35,660.45C244.35,660.45,248,680.51,220.93,679.59Z" transform="translate(-193.14 -591.88)" style="fill:#479456"/><path id="Path_227" data-name="Path 227" d="M223.35,712.77s3.92-19.49-23.41-19.14C199.94,693.63,196.26,713.69,223.35,712.77Z" transform="translate(-193.14 -591.88)" style="fill:#479456"/></g><g id="Group_189" data-name="Group 189"><ellipse id="Ellipse_37" data-name="Ellipse 37" cx="44.08" cy="35" rx="8.98" ry="7.11" style="fill:#cd2027"/><path id="Path_228" data-name="Path 228" d="M232.47,622.72s1.47-.09.89.55a5.05,5.05,0,0,0-1.15,4.26c.44,1.69-.07,3-1.13,1.94a5.63,5.63,0,0,1-1-5.12A3.1,3.1,0,0,1,232.47,622.72Z" transform="translate(-193.14 -591.88)" style="fill:#e83326"/><path id="Path_229" data-name="Path 229" d="M234.89,624.1a8.61,8.61,0,0,0,4.07.24c2.52-.37-.56.74-1.44.76a4.07,4.07,0,0,1-3-.91C234.05,623.72,234.89,624.1,234.89,624.1Z" transform="translate(-193.14 -591.88)" style="fill:#e83326"/><path id="Path_230" data-name="Path 230" d="M240.54,620.54s5.75,2.29,5.22,6.47c-.28,2.87-3,5.21-6.56,5.7-1.5.09.06-.73,1.75-2.48s2.6-5.37,1.44-7a8.91,8.91,0,0,0-2.95-2.57s-.33-.17-.05-.31S240.54,620.54,240.54,620.54Z" transform="translate(-193.14 -591.88)" style="fill:#b01f24"/><g id="Group_188" data-name="Group 188"><path id="Path_231" data-name="Path 231" d="M232.37,623.41a6.78,6.78,0,0,1,3.95-1c2.39.11,2.85.45,2.85.45a22.11,22.11,0,0,1,3.26,1.41,7,7,0,0,0-2.67-1.84s-.71-.18-.31-.37a16.5,16.5,0,0,1,5.74-1.22,10.29,10.29,0,0,0-5.82.58s-.79.32-.68,0,.88-1.85.91-2.12a.45.45,0,0,0-.43-.22l-1.32,1.77a5,5,0,0,0-2.58-4.54s1.95,2.94,1.81,4.77c0,0-.09.46-.45.21s-3.33-2-5-1.87c0,0,4.44,2.1,4.65,2.34s-.22.22-.22.22S233.19,621.77,232.37,623.41Z" transform="translate(-193.14 -591.88)" style="fill:#37773a"/><path id="Path_232" data-name="Path 232" d="M239.43,619.26l-1,2a.66.66,0,0,1-.61-.21s0,.49.73.42l1-2.15A.2.2,0,0,0,239.43,619.26Z" transform="translate(-193.14 -591.88)" style="fill:#2a4721"/></g></g></g><g id="Group_191" data-name="Group 191"><path id="Rectangle_197" data-name="Rectangle 197" d="M371.71,721.74h30.68a1.81,1.81,0,0,1,2,1.56v27a1.81,1.81,0,0,1-2,1.57H371.71a1.81,1.81,0,0,1-2-1.57v-27A1.81,1.81,0,0,1,371.71,721.74Z" transform="translate(-193.14 -591.88)" style="fill:#845321"/><path id="Rectangle_198" data-name="Rectangle 198" d="M201,721.25h30.68a1.81,1.81,0,0,1,2,1.56v27a1.81,1.81,0,0,1-2,1.57H201a1.81,1.81,0,0,1-2-1.57v-27A1.81,1.81,0,0,1,201,721.25Z" transform="translate(-193.14 -591.88)" style="fill:#845321"/><path id="Rectangle_199" data-name="Rectangle 199" d="M195.12,706.23H407.94a1.82,1.82,0,0,1,2,1.57v25a1.81,1.81,0,0,1-2,1.57H195.12a1.81,1.81,0,0,1-2-1.57v-25A1.82,1.82,0,0,1,195.12,706.23Z" transform="translate(-193.14 -591.88)" style="fill:#b77934"/><path id="Rectangle_200" data-name="Rectangle 200" d="M195.12,740H407.94a1.82,1.82,0,0,1,2,1.57v25a1.81,1.81,0,0,1-2,1.57H195.12a1.81,1.81,0,0,1-2-1.57v-25A1.82,1.82,0,0,1,195.12,740Z" transform="translate(-193.14 -591.88)" style="fill:#b77934"/></g><rect id="Rectangle_201" data-name="Rectangle 201" x="20.33" y="124.88" width="91.84" height="19.92" style="fill:none"/><g id="Group_181" data-name="Group 181"><path id="Path_137" data-name="Path 137" d="M287,650.8s-16.39,4.78-21.86,24.36,2.05,34.37,2.05,34.37,3.87,18.44-4.32,28-5.75,23.75,6.6,24.36,13.43,6.38,13.43,6.38h62.38s17.76-29.6-3.87-43.48c0,0-11.61-8.43-10.7-15.71a19.43,19.43,0,0,1,5-11.16s7.06-13.2,0-30.51S304.8,634,287,650.8Z" transform="translate(-193.14 -591.88)"/><g id="Group_146" data-name="Group 146"><rect id="Rectangle_147" data-name="Rectangle 147" x="131.71" y="155.22" width="13.53" height="21.17" style="fill:#f3b07f"/><rect id="Rectangle_148" data-name="Rectangle 148" x="74.95" y="155.22" width="13.53" height="21.17" style="fill:#f3b07f"/></g><path id="Path_138" data-name="Path 138" d="M274.56,737.06l18.19-6.46H312l20.58,6.86-8.46,25-1.49,5.88H283.21Z" transform="translate(-193.14 -591.88)" style="fill:#333e8f"/><path id="Path_139" data-name="Path 139" d="M264.82,750.08s5.29-17.49,15.5-12.72,1.53,25.15,1.53,25.15S265.74,762.11,264.82,750.08Z" transform="translate(-193.14 -591.88)" style="fill:#28316d"/><path id="Path_140" data-name="Path 140" d="M340.07,750.37s-4.47-17.79-14.41-13-1.49,25.15-1.49,25.15S337.69,758.72,340.07,750.37Z" transform="translate(-193.14 -591.88)" style="fill:#28316d"/><path id="Path_141" data-name="Path 141" d="M295.17,729.48l-2.9.33s.33,8.6,9.92,8.6,10.42-8.6,10.42-8.6l-3.48-.49Z" transform="translate(-193.14 -591.88)" style="fill:#28316d"/><path id="Path_142" data-name="Path 142" d="M295.46,717.85v12.57s-.12,5.32,6.91,5.32,7.24-5.66,7.24-5.66v-13H295.34Z" transform="translate(-193.14 -591.88)" style="fill:#f6b07d"/><g id="Group_147" data-name="Group 147"><path id="Path_143" data-name="Path 143" d="M328.38,695.24l3.58-8.86s5.62,2.56,2.9,9.21-8.52,4.26-8.52,4.26Z" transform="translate(-193.14 -591.88)" style="fill:#f6b07d"/><path id="Path_144" data-name="Path 144" d="M276.3,695.24l-3.58-8.86s-5.63,2.56-2.9,9.21,8.52,4.26,8.52,4.26Z" transform="translate(-193.14 -591.88)" style="fill:#f6b07d"/></g><path id="Path_145" data-name="Path 145" d="M275.05,689.85s3.15,29.37,27.21,29.37c25.9,0,27.27-28.47,27.27-28.47s2.3-38.39-25.5-38.56C272.09,652,275.05,689.85,275.05,689.85Z" transform="translate(-193.14 -591.88)" style="fill:#f6b07d"/><ellipse id="Ellipse_28" data-name="Ellipse 28" cx="98.94" cy="95" rx="2.35" ry="3.62"/><ellipse id="Ellipse_29" data-name="Ellipse 29" cx="120.65" cy="94.88" rx="2.35" ry="3.62"/><path id="Path_146" data-name="Path 146" d="M308.75,678.1h7.88s4.54-.21,6.32,2.34H308.89Z" transform="translate(-193.14 -591.88)"/><path id="Path_147" data-name="Path 147" d="M297,678h-7.88s-4.55-.21-6.32,2.35h14.06Z" transform="translate(-193.14 -591.88)"/><path id="Path_148" data-name="Path 148" d="M297.46,703.45h12.92S303.55,711.9,297.46,703.45Z" transform="translate(-193.14 -591.88)" style="fill:#fff"/><path id="Path_149" data-name="Path 149" d="M275.58,693.63s-1.74-11.64,4.52-17,12.66-10.77,8.73-17.18c0,0,1.75,10.19,25.19,5.09,0,0,16,14.28,14,31.75,0,0,4.66-9.47,4.66-15.73S322.32,650,302.37,651.27,270.78,666.26,275.58,693.63Z" transform="translate(-193.14 -591.88)"/></g></svg>